<svg width="50" height="50" viewBox="0 0 50 50" fill="none" xmlns="http://www.w3.org/2000/svg">
<path d="M33.3337 35.4167V39.5834H4.16699V35.4167C4.16699 35.4167 4.16699 27.0834 18.7503 27.0834C33.3337 27.0834 33.3337 35.4167 33.3337 35.4167ZM26.042 15.625C26.042 14.1829 25.6143 12.7731 24.8131 11.574C24.0119 10.3749 22.8731 9.4403 21.5407 8.88841C20.2083 8.33652 18.7422 8.19212 17.3278 8.47347C15.9133 8.75482 14.6141 9.44928 13.5943 10.469C12.5746 11.4888 11.8801 12.7881 11.5988 14.2025C11.3174 15.6169 11.4618 17.083 12.0137 18.4154C12.5656 19.7478 13.5002 20.8866 14.6993 21.6878C15.8984 22.489 17.3082 22.9167 18.7503 22.9167C20.6842 22.9167 22.5389 22.1485 23.9063 20.781C25.2738 19.4136 26.042 17.5589 26.042 15.625ZM33.2087 27.0834C34.4894 28.0745 35.5374 29.3343 36.2788 30.774C37.0203 32.2137 37.4372 33.7985 37.5003 35.4167V39.5834H45.8337V35.4167C45.8337 35.4167 45.8337 27.8542 33.2087 27.0834ZM31.2503 8.33336C29.8163 8.32538 28.4139 8.7541 27.2295 9.56253C28.495 11.3307 29.1754 13.4506 29.1754 15.625C29.1754 17.7994 28.495 19.9193 27.2295 21.6875C28.4139 22.496 29.8163 22.9247 31.2503 22.9167C33.1842 22.9167 35.0389 22.1485 36.4063 20.781C37.7738 19.4136 38.542 17.5589 38.542 15.625C38.542 13.6912 37.7738 11.8365 36.4063 10.469C35.0389 9.10159 33.1842 8.33336 31.2503 8.33336Z" fill="#FFF7F7"/>
</svg>
