<svg width="30" height="30" viewBox="0 0 30 30" fill="none" xmlns="http://www.w3.org/2000/svg">
<path d="M3.75 26.25V20.9375L20.25 4.46875C20.5 4.23958 20.7763 4.0625 21.0788 3.9375C21.3813 3.8125 21.6987 3.75 22.0312 3.75C22.3646 3.75 22.6875 3.8125 23 3.9375C23.3125 4.0625 23.5833 4.25 23.8125 4.5L25.5312 6.25C25.7812 6.47917 25.9638 6.75 26.0788 7.0625C26.1938 7.375 26.2508 7.6875 26.25 8C26.25 8.33333 26.1929 8.65125 26.0788 8.95375C25.9646 9.25625 25.7821 9.53208 25.5312 9.78125L9.0625 26.25H3.75ZM22 9.75L23.75 8L22 6.25L20.25 8L22 9.75Z" fill="#FAE7E7"/>
</svg>
