<svg width="454" height="393" viewBox="0 0 454 393" fill="none" xmlns="http://www.w3.org/2000/svg">
<path d="M219.7 54.8168H41.8047V177.657H219.7V54.8168Z" fill="#DBDBDB"/>
<path d="M41.8047 177.657V205.671L70.4339 177.657H41.8047Z" fill="#DBDBDB"/>
<path d="M234.301 244.364L412.196 244.364V121.523L234.301 121.523L234.301 244.364Z" fill="#EBEBEB"/>
<path d="M412.196 244.355V272.369L383.566 244.355H412.196Z" fill="#EBEBEB"/>
<path d="M59.2108 233.747H35.167V243.639H59.2108V233.747Z" fill="#EBEBEB"/>
<path d="M45.7997 246.221H21.7559V256.112H45.7997V246.221Z" fill="#EBEBEB"/>
<path d="M72.622 246.221H48.5781V256.112H72.622V246.221Z" fill="#EBEBEB"/>
<path d="M418.833 286.796H394.789V296.688H418.833V286.796Z" fill="#EBEBEB"/>
<path d="M418.833 35.0948H394.789V44.9868H418.833V35.0948Z" fill="#EBEBEB"/>
<path d="M432.244 47.568H408.2V57.46H432.244V47.568Z" fill="#EBEBEB"/>
<path d="M45.7997 35.1036H21.7559V44.9956H45.7997V35.1036Z" fill="#EBEBEB"/>
<path d="M176.025 211.612H200.069V201.72H176.025V211.612Z" fill="#EBEBEB"/>
<path d="M189.437 199.139H213.48V189.247H189.437V199.139Z" fill="#EBEBEB"/>
<path d="M382.104 0.0265198H381.196V66.1586H382.104V0.0265198Z" fill="#C7C7C7"/>
<path d="M387.271 59.9794H376.03V71.825H387.271V59.9794Z" fill="#DBDBDB"/>
<path d="M404.641 109.616H358.66C359.568 92.5813 367.931 65.2922 381.66 65.2922C395.389 65.2922 403.724 92.5725 404.641 109.616Z" fill="#DBDBDB"/>
<path d="M323.712 0.0265198H322.804V66.1586H323.712V0.0265198Z" fill="#C7C7C7"/>
<path d="M328.878 59.9794H317.637V71.825H328.878V59.9794Z" fill="#DBDBDB"/>
<path d="M346.248 109.616H300.258C301.166 92.5813 309.529 65.2922 323.257 65.2922C336.986 65.2922 345.331 92.5725 346.248 109.616Z" fill="#DBDBDB"/>
<path d="M265.308 0.0265198H264.4V66.1586H265.308V0.0265198Z" fill="#C7C7C7"/>
<path d="M270.484 59.9794H259.243V71.825H270.484V59.9794Z" fill="#DBDBDB"/>
<path d="M287.836 109.616H241.864C242.772 92.5813 251.135 65.2922 264.855 65.2922C278.575 65.2922 286.928 92.5725 287.836 109.616Z" fill="#DBDBDB"/>
<path d="M18.2422 324.295L70.434 324.083L122.626 324.004L227 323.853L331.375 324.004L383.567 324.083L435.759 324.295L383.567 324.516L331.375 324.596L227 324.737L122.626 324.587L70.434 324.516L18.2422 324.295Z" fill="#263238"/>
<path d="M227 371.846C332.706 371.846 418.397 361.421 418.397 348.561C418.397 335.701 332.706 325.277 227 325.277C121.294 325.277 35.6025 335.701 35.6025 348.561C35.6025 361.421 121.294 371.846 227 371.846Z" fill="#EBEBEB"/>
<path d="M138.615 390.701C169.616 390.701 194.748 384.535 194.748 376.929C194.748 369.322 169.616 363.156 138.615 363.156C107.614 363.156 82.4824 369.322 82.4824 376.929C82.4824 384.535 107.614 390.701 138.615 390.701Z" fill="#EBEBEB"/>
<path d="M282.452 257.244C291.096 268.161 306.687 272.767 320.434 274.04C334.444 275.357 350.289 274.623 363.219 268.851C368.885 266.332 374.115 262.557 377.565 257.536C381.261 252.152 381.878 246.388 378.31 241.111C375.44 236.859 368.948 233.677 369.066 229.867C369.184 226.056 372.562 223.157 373.606 219.524C375.368 213.336 371.981 208.518 367.55 204.31C357.053 194.33 360.44 181.715 354.202 169.516C350.652 162.585 340.382 149.679 321.006 154.788C313.633 156.742 308.412 162.921 305.207 169.383C301.447 176.994 303.572 187.231 299.041 194.515C295.164 200.703 289.78 201.587 286.057 208.094C284.441 210.922 283.596 214.282 286.565 221.159C287.646 223.661 288.744 227.444 287.573 230.335C285.948 234.34 280.854 236.037 279.056 240.209C276.568 245.946 278.638 252.4 282.452 257.244Z" fill="#263238"/>
<path d="M373.234 259.012C379.853 258.19 382.986 249.606 378.963 245.045C376.421 242.145 372.489 240.722 369.938 237.84C365.743 233.102 369.774 229.071 372.281 224.58C377.729 214.936 370.982 208.111 363.827 201.826C358.379 197.052 357.471 191.748 357.308 184.968C357.308 184.862 357.489 184.853 357.498 184.968C357.852 189.972 358.406 194.887 361.92 198.9C364.771 202.162 368.639 204.452 371.4 207.828C376.021 213.495 376.403 219.497 372.798 225.694C371.772 227.462 369.847 229.469 369.384 231.431C368.303 236.063 371.89 238.583 375.295 240.978C377.901 242.817 380.798 244.859 381.696 248.006C383.058 252.753 378.437 259.003 373.316 259.366C373.052 259.41 372.971 259.012 373.234 259.012Z" fill="#263238"/>
<path d="M369.493 263.653C373.606 261.434 378.064 259.445 380.57 255.432C384.284 249.482 380.053 244.824 376.085 240.404C374.378 238.512 372.98 236.638 373.152 234.048C373.406 230.167 376.475 226.976 377.093 223.157C378.555 214.008 369.248 208.129 364.68 201.304C360.013 194.232 358.688 186.179 357.162 178.17C357.161 178.137 357.172 178.104 357.194 178.078C357.216 178.052 357.246 178.034 357.28 178.027C357.314 178.021 357.349 178.027 357.379 178.043C357.409 178.059 357.432 178.086 357.444 178.117C359.459 188.345 362.292 198.016 369.556 206.034C374.632 211.647 380.026 217.72 377.347 225.561C376.684 227.489 375.431 229.221 374.814 231.148C373.597 234.976 374.614 237.504 377.184 240.333C379.753 243.162 382.55 245.858 382.913 249.633C383.621 256.97 375.849 261.593 369.783 264.236C369.706 264.261 369.622 264.258 369.547 264.227C369.472 264.196 369.411 264.14 369.376 264.069C369.34 263.997 369.333 263.916 369.354 263.839C369.376 263.763 369.425 263.697 369.493 263.653Z" fill="#263238"/>
<path d="M277.349 237.867C280.727 233.5 285.975 231.405 284.758 225.04C283.914 220.62 281.508 217.084 282.534 212.496C283.378 208.686 286.011 205.769 289.099 203.311C293.021 200.191 297.325 197.689 300.222 193.587C303.381 189.096 304.871 183.784 306.405 178.656C306.405 178.559 306.614 178.603 306.596 178.656C304.952 185.64 302.964 192.8 297.316 197.919C294.365 200.571 290.797 202.595 287.873 205.3C282.615 210.171 282.552 215.625 284.658 221.875C285.621 224.739 286.474 227.621 285.049 230.503C283.623 233.385 280.709 235.126 278.638 237.513C269.849 247.679 282.788 261.001 293.657 263.087C294.147 263.176 294.074 263.901 293.566 263.812C285.439 262.495 276.94 255.282 275.279 247.582C274.891 245.913 274.875 244.182 275.232 242.506C275.589 240.83 276.311 239.248 277.349 237.867Z" fill="#263238"/>
<path d="M277.612 243.392C277.776 238.777 280.845 236.267 283.242 232.678C287.01 227.038 283.296 221.354 282.942 215.325C282.688 211.126 284.531 207.599 287.301 204.584C291.014 200.518 295.736 197.654 298.814 192.968C302.038 187.978 303.648 182.161 303.436 176.27C303.436 176.164 303.608 176.181 303.608 176.27C303.916 180.253 303.345 184.255 301.936 188.007C300.527 191.758 298.311 195.174 295.436 198.025C291.714 201.711 286.729 204.681 284.595 209.685C282.343 214.989 285.085 219.877 285.757 225.19C285.998 226.76 285.904 228.362 285.481 229.895C285.058 231.428 284.314 232.86 283.296 234.101C281.789 236.063 279.955 237.84 279.092 240.218C277.93 243.436 278.611 247.051 279.946 250.145C284.177 259.923 294.801 266.181 304.97 267.896C305.334 267.958 305.297 268.515 304.97 268.462C295.705 267.041 287.386 262.125 281.816 254.778C279.347 251.516 277.467 247.52 277.612 243.392Z" fill="#263238"/>
<path d="M323.693 224.801C318.708 223.634 308.43 236.293 299.377 255.529C284.849 286.336 277.194 324.295 277.194 324.295H324.519C324.519 324.295 336.587 227.798 323.693 224.801Z" fill="#EB9481"/>
<path d="M271.437 326.267H252.124V329.202H271.437V326.267Z" fill="#455A64"/>
<path d="M271.437 326.267H252.124V328.203H271.437V326.267Z" fill="#263238"/>
<path d="M294.347 318.381C293.173 320.079 291.519 321.409 289.586 322.212C287.653 323.015 285.522 323.257 283.451 322.908C282.782 322.78 282.126 322.597 281.49 322.359C280.533 321.99 279.62 321.522 278.766 320.963L281.226 317.427C281.682 317.737 282.165 318.006 282.67 318.231C287.274 320.256 290.179 316.728 290.751 315.924C293.403 312.3 294.383 304.034 291.659 300.852C291.478 300.613 290.706 300.242 287.591 300.852C287.019 300.975 286.366 301.117 285.63 301.311C285.06 301.502 284.469 301.627 283.869 301.683L283.787 299.561L283.578 297.439C283.778 297.439 284.086 297.316 284.486 297.201C285.925 296.794 287.394 296.499 288.881 296.317C291.169 296.087 293.566 296.317 295.037 298.085C299.432 303.336 297.661 313.82 294.347 318.381Z" fill="#455A64"/>
<path d="M281.244 317.418C281.699 317.728 282.182 317.997 282.687 318.222L281.48 322.359C280.523 321.99 279.61 321.522 278.756 320.963L281.244 317.418Z" fill="#263238"/>
<path d="M288.916 296.343L287.618 300.878C287.046 301.002 286.392 301.143 285.657 301.338C285.086 301.529 284.495 301.653 283.895 301.709L283.813 299.588L283.604 297.466C283.804 297.466 284.113 297.342 284.512 297.227C285.954 296.82 287.427 296.525 288.916 296.343Z" fill="#263238"/>
<path d="M236.08 290.836C236.08 290.836 238.395 309.992 242.436 318.063C246.477 326.134 252.025 327.018 255.493 327.018H268.114C271.583 327.018 277.194 326.134 281.171 318.063C285.148 309.992 287.482 290.836 287.482 290.836H236.08Z" fill="#455A64"/>
<path d="M239.867 303.345C239.623 303.345 239.384 303.274 239.181 303.142C238.978 303.01 238.819 302.822 238.726 302.602C238.632 302.383 238.608 302.141 238.656 301.908C238.703 301.675 238.821 301.46 238.994 301.292C239.166 301.124 239.386 301.01 239.626 300.963C239.865 300.917 240.114 300.941 240.339 301.032C240.565 301.123 240.758 301.277 240.894 301.474C241.029 301.672 241.102 301.905 241.102 302.142C241.102 302.461 240.971 302.767 240.74 302.992C240.508 303.218 240.194 303.345 239.867 303.345ZM239.867 301.161C239.667 301.161 239.473 301.219 239.307 301.326C239.141 301.434 239.012 301.588 238.936 301.767C238.859 301.946 238.839 302.143 238.878 302.334C238.917 302.524 239.013 302.699 239.154 302.836C239.295 302.973 239.475 303.067 239.67 303.105C239.866 303.143 240.068 303.123 240.252 303.049C240.437 302.975 240.594 302.849 240.705 302.688C240.815 302.526 240.875 302.336 240.875 302.142C240.875 301.882 240.768 301.633 240.579 301.449C240.39 301.264 240.134 301.161 239.867 301.161Z" fill="white"/>
<path d="M276.468 297.157C276.221 297.158 275.979 297.089 275.773 296.956C275.567 296.824 275.407 296.635 275.311 296.413C275.216 296.191 275.191 295.947 275.238 295.711C275.286 295.476 275.405 295.259 275.579 295.089C275.754 294.919 275.976 294.804 276.218 294.757C276.46 294.711 276.711 294.736 276.939 294.828C277.167 294.921 277.361 295.078 277.497 295.278C277.633 295.479 277.705 295.714 277.703 295.954C277.703 296.273 277.573 296.579 277.341 296.804C277.109 297.03 276.795 297.157 276.468 297.157ZM276.468 294.964C276.266 294.963 276.069 295.019 275.9 295.127C275.732 295.235 275.6 295.389 275.522 295.569C275.443 295.75 275.422 295.949 275.46 296.142C275.498 296.335 275.595 296.512 275.736 296.651C275.878 296.791 276.059 296.886 276.257 296.925C276.455 296.964 276.659 296.945 276.846 296.87C277.032 296.795 277.192 296.668 277.304 296.505C277.416 296.342 277.476 296.151 277.476 295.954C277.476 295.693 277.37 295.443 277.181 295.257C276.992 295.072 276.736 294.967 276.468 294.964Z" fill="white"/>
<path d="M274.643 314.81C274.396 314.812 274.155 314.742 273.949 314.61C273.743 314.478 273.583 314.29 273.487 314.069C273.391 313.847 273.365 313.604 273.412 313.368C273.459 313.133 273.577 312.916 273.751 312.746C273.924 312.576 274.146 312.459 274.388 312.412C274.629 312.364 274.88 312.388 275.108 312.479C275.335 312.571 275.53 312.726 275.667 312.925C275.804 313.125 275.878 313.359 275.878 313.599C275.879 313.758 275.848 313.915 275.786 314.062C275.725 314.209 275.634 314.342 275.519 314.455C275.404 314.567 275.268 314.657 275.117 314.718C274.967 314.779 274.806 314.81 274.643 314.81ZM274.643 312.618C274.441 312.616 274.243 312.673 274.074 312.781C273.906 312.889 273.774 313.044 273.696 313.225C273.618 313.406 273.597 313.606 273.636 313.799C273.675 313.992 273.772 314.169 273.915 314.308C274.057 314.447 274.239 314.541 274.437 314.579C274.636 314.617 274.841 314.597 275.027 314.521C275.213 314.445 275.372 314.317 275.483 314.152C275.594 313.988 275.652 313.796 275.651 313.599C275.651 313.339 275.544 313.089 275.355 312.905C275.166 312.721 274.91 312.618 274.643 312.618Z" fill="white"/>
<path d="M284.731 294.001C284.487 294.001 284.248 293.93 284.045 293.798C283.842 293.666 283.684 293.478 283.59 293.259C283.497 293.039 283.472 292.797 283.52 292.564C283.567 292.331 283.685 292.117 283.858 291.948C284.031 291.78 284.251 291.666 284.49 291.619C284.73 291.573 284.978 291.597 285.204 291.688C285.429 291.779 285.622 291.933 285.758 292.131C285.893 292.328 285.966 292.561 285.966 292.798C285.963 293.117 285.833 293.421 285.602 293.646C285.37 293.871 285.058 293.998 284.731 294.001ZM284.731 291.817C284.532 291.817 284.337 291.875 284.171 291.983C284.005 292.09 283.876 292.244 283.8 292.423C283.724 292.602 283.704 292.8 283.742 292.99C283.781 293.18 283.877 293.355 284.018 293.492C284.159 293.63 284.339 293.723 284.534 293.761C284.73 293.799 284.933 293.779 285.117 293.705C285.301 293.631 285.458 293.505 285.569 293.344C285.68 293.182 285.739 292.993 285.739 292.798C285.739 292.538 285.633 292.289 285.444 292.105C285.255 291.921 284.998 291.817 284.731 291.817Z" fill="white"/>
<path d="M267.505 301.497C267.262 301.492 267.026 301.417 266.827 301.282C266.628 301.146 266.474 300.957 266.384 300.737C266.295 300.517 266.274 300.276 266.325 300.044C266.376 299.813 266.495 299.601 266.669 299.436C266.843 299.27 267.063 299.158 267.302 299.114C267.54 299.07 267.787 299.095 268.011 299.187C268.235 299.279 268.427 299.433 268.561 299.63C268.696 299.827 268.768 300.058 268.768 300.295C268.768 300.455 268.735 300.613 268.671 300.761C268.607 300.909 268.514 301.042 268.396 301.154C268.279 301.266 268.139 301.354 267.986 301.413C267.833 301.472 267.67 301.501 267.505 301.497ZM267.505 299.314C267.306 299.314 267.111 299.371 266.946 299.479C266.78 299.587 266.651 299.74 266.574 299.919C266.498 300.099 266.478 300.296 266.517 300.486C266.556 300.677 266.652 300.851 266.793 300.989C266.934 301.126 267.113 301.219 267.309 301.257C267.504 301.295 267.707 301.276 267.891 301.201C268.075 301.127 268.233 301.001 268.343 300.84C268.454 300.679 268.513 300.489 268.513 300.295C268.511 300.035 268.404 299.787 268.216 299.604C268.027 299.42 267.772 299.316 267.505 299.314Z" fill="white"/>
<path d="M254.059 314.306C253.812 314.308 253.57 314.238 253.364 314.106C253.158 313.973 252.997 313.784 252.902 313.563C252.807 313.341 252.781 313.097 252.829 312.861C252.877 312.625 252.995 312.409 253.17 312.239C253.345 312.069 253.567 311.953 253.809 311.907C254.051 311.86 254.302 311.885 254.53 311.978C254.758 312.071 254.952 312.227 255.088 312.428C255.224 312.628 255.295 312.864 255.294 313.104C255.294 313.262 255.262 313.418 255.2 313.564C255.138 313.71 255.047 313.842 254.932 313.954C254.817 314.066 254.681 314.154 254.531 314.215C254.381 314.275 254.221 314.306 254.059 314.306ZM254.059 312.114C253.857 312.112 253.66 312.169 253.491 312.276C253.323 312.384 253.191 312.538 253.113 312.719C253.034 312.9 253.013 313.099 253.051 313.292C253.089 313.484 253.185 313.662 253.327 313.801C253.469 313.94 253.65 314.035 253.848 314.074C254.045 314.113 254.25 314.094 254.437 314.019C254.623 313.945 254.782 313.818 254.895 313.655C255.007 313.492 255.067 313.3 255.067 313.104C255.068 312.974 255.043 312.846 254.992 312.726C254.942 312.606 254.868 312.496 254.775 312.404C254.681 312.312 254.569 312.239 254.446 312.189C254.324 312.14 254.192 312.114 254.059 312.114Z" fill="white"/>
<path d="M262.276 294.001C262.032 294.001 261.793 293.93 261.59 293.798C261.387 293.666 261.228 293.478 261.135 293.259C261.042 293.039 261.017 292.797 261.065 292.564C261.112 292.331 261.23 292.117 261.403 291.948C261.575 291.78 261.795 291.666 262.035 291.619C262.275 291.573 262.523 291.597 262.748 291.688C262.974 291.779 263.167 291.933 263.303 292.131C263.438 292.328 263.511 292.561 263.511 292.798C263.511 293.117 263.381 293.423 263.149 293.649C262.918 293.874 262.603 294.001 262.276 294.001ZM262.276 291.817C262.077 291.817 261.882 291.875 261.716 291.983C261.55 292.09 261.421 292.244 261.345 292.423C261.268 292.602 261.248 292.8 261.287 292.99C261.326 293.18 261.422 293.355 261.563 293.492C261.704 293.63 261.884 293.723 262.079 293.761C262.275 293.799 262.477 293.779 262.662 293.705C262.846 293.631 263.003 293.505 263.114 293.344C263.225 293.182 263.284 292.993 263.284 292.798C263.284 292.538 263.178 292.289 262.989 292.105C262.8 291.921 262.543 291.817 262.276 291.817Z" fill="white"/>
<path d="M263.81 309.48C263.566 309.48 263.327 309.409 263.124 309.277C262.921 309.145 262.763 308.957 262.669 308.737C262.576 308.518 262.551 308.276 262.599 308.043C262.647 307.81 262.764 307.595 262.937 307.427C263.11 307.259 263.33 307.145 263.569 307.098C263.809 307.052 264.057 307.076 264.283 307.167C264.508 307.258 264.701 307.412 264.837 307.609C264.973 307.807 265.045 308.04 265.045 308.277C265.045 308.596 264.915 308.902 264.683 309.127C264.452 309.353 264.138 309.48 263.81 309.48ZM263.81 307.296C263.611 307.296 263.416 307.354 263.25 307.461C263.084 307.569 262.955 307.723 262.879 307.902C262.803 308.081 262.783 308.278 262.822 308.469C262.86 308.659 262.956 308.834 263.097 308.971C263.238 309.108 263.418 309.202 263.613 309.24C263.809 309.278 264.012 309.258 264.196 309.184C264.38 309.11 264.537 308.984 264.648 308.822C264.759 308.661 264.818 308.471 264.818 308.277C264.818 308.017 264.712 307.767 264.523 307.583C264.334 307.399 264.077 307.296 263.81 307.296Z" fill="white"/>
<path d="M276.032 323.889C275.788 323.884 275.551 323.809 275.35 323.673C275.15 323.538 274.995 323.348 274.904 323.127C274.814 322.906 274.792 322.665 274.841 322.432C274.891 322.199 275.01 321.986 275.183 321.819C275.356 321.651 275.576 321.537 275.815 321.49C276.055 321.444 276.303 321.467 276.529 321.556C276.755 321.646 276.949 321.799 277.087 321.995C277.224 322.191 277.3 322.422 277.303 322.66C277.307 322.823 277.277 322.985 277.214 323.137C277.151 323.288 277.058 323.425 276.939 323.54C276.82 323.655 276.678 323.745 276.522 323.805C276.366 323.865 276.2 323.894 276.032 323.889ZM276.032 321.696C275.83 321.695 275.633 321.751 275.465 321.859C275.296 321.967 275.164 322.121 275.086 322.301C275.008 322.482 274.986 322.682 275.024 322.874C275.063 323.067 275.159 323.244 275.301 323.383C275.442 323.523 275.624 323.618 275.821 323.657C276.019 323.696 276.224 323.677 276.41 323.602C276.596 323.527 276.756 323.4 276.868 323.237C276.98 323.074 277.04 322.883 277.04 322.687C277.04 322.425 276.934 322.175 276.745 321.99C276.556 321.804 276.3 321.699 276.032 321.696Z" fill="white"/>
<path d="M245.995 295.804C245.752 295.802 245.514 295.73 245.312 295.597C245.11 295.464 244.953 295.276 244.861 295.056C244.769 294.836 244.746 294.595 244.794 294.362C244.843 294.129 244.961 293.916 245.134 293.749C245.307 293.581 245.528 293.468 245.767 293.422C246.006 293.376 246.254 293.401 246.479 293.492C246.704 293.583 246.896 293.737 247.032 293.935C247.167 294.132 247.239 294.364 247.239 294.602C247.239 294.76 247.207 294.918 247.144 295.064C247.082 295.21 246.99 295.343 246.874 295.455C246.759 295.567 246.622 295.655 246.471 295.715C246.32 295.775 246.158 295.805 245.995 295.804ZM245.995 293.621C245.796 293.622 245.602 293.681 245.438 293.79C245.273 293.899 245.146 294.053 245.071 294.232C244.996 294.412 244.977 294.609 245.017 294.799C245.057 294.988 245.154 295.162 245.295 295.299C245.436 295.435 245.616 295.528 245.811 295.565C246.006 295.602 246.209 295.582 246.392 295.508C246.576 295.433 246.733 295.307 246.843 295.146C246.953 294.985 247.012 294.796 247.012 294.602C247.012 294.472 246.986 294.344 246.935 294.224C246.883 294.105 246.808 293.996 246.714 293.905C246.619 293.814 246.507 293.742 246.384 293.693C246.26 293.644 246.128 293.619 245.995 293.621Z" fill="white"/>
<path d="M280.5 306.2C280.253 306.2 280.013 306.129 279.808 305.995C279.603 305.862 279.444 305.672 279.35 305.45C279.256 305.228 279.232 304.984 279.28 304.749C279.329 304.514 279.449 304.298 279.623 304.129C279.798 303.96 280.021 303.846 280.263 303.8C280.505 303.754 280.755 303.779 280.982 303.873C281.209 303.966 281.403 304.122 281.539 304.322C281.674 304.523 281.746 304.758 281.744 304.998C281.744 305.156 281.712 305.313 281.649 305.46C281.586 305.606 281.494 305.739 281.379 305.851C281.263 305.963 281.126 306.051 280.975 306.111C280.824 306.171 280.663 306.201 280.5 306.2ZM280.5 304.008C280.297 304.001 280.096 304.053 279.923 304.158C279.751 304.263 279.615 304.417 279.533 304.598C279.451 304.779 279.427 304.98 279.463 305.175C279.5 305.37 279.595 305.549 279.738 305.691C279.88 305.832 280.063 305.928 280.263 305.968C280.462 306.007 280.669 305.987 280.857 305.91C281.044 305.834 281.204 305.704 281.315 305.538C281.426 305.372 281.484 305.178 281.48 304.98C281.476 304.726 281.372 304.484 281.189 304.303C281.007 304.122 280.76 304.017 280.5 304.008Z" fill="white"/>
<path d="M255.148 302.593C254.904 302.593 254.665 302.523 254.462 302.391C254.259 302.258 254.101 302.071 254.007 301.851C253.914 301.631 253.889 301.39 253.937 301.156C253.984 300.923 254.102 300.709 254.275 300.541C254.447 300.373 254.668 300.258 254.907 300.212C255.147 300.165 255.395 300.189 255.621 300.28C255.846 300.371 256.039 300.525 256.175 300.723C256.31 300.921 256.383 301.153 256.383 301.391C256.383 301.549 256.351 301.705 256.289 301.851C256.227 301.997 256.136 302.129 256.021 302.241C255.906 302.353 255.77 302.441 255.621 302.502C255.471 302.562 255.31 302.593 255.148 302.593ZM255.148 300.41C254.949 300.41 254.754 300.467 254.588 300.575C254.422 300.683 254.293 300.836 254.217 301.015C254.141 301.195 254.121 301.392 254.159 301.582C254.198 301.773 254.294 301.948 254.435 302.085C254.576 302.222 254.756 302.316 254.951 302.353C255.147 302.391 255.349 302.372 255.534 302.298C255.718 302.223 255.875 302.097 255.986 301.936C256.097 301.775 256.156 301.585 256.156 301.391C256.156 301.262 256.13 301.135 256.079 301.015C256.028 300.896 255.954 300.788 255.861 300.697C255.767 300.606 255.656 300.534 255.534 300.484C255.411 300.435 255.28 300.41 255.148 300.41Z" fill="white"/>
<path d="M263.81 322.077C263.563 322.078 263.32 322.008 263.114 321.875C262.908 321.742 262.747 321.551 262.652 321.329C262.558 321.106 262.533 320.861 262.582 320.625C262.632 320.389 262.752 320.172 262.928 320.003C263.105 319.834 263.329 319.72 263.572 319.675C263.816 319.631 264.067 319.658 264.294 319.754C264.522 319.849 264.715 320.008 264.848 320.211C264.982 320.414 265.051 320.651 265.045 320.892C265.04 321.208 264.908 321.509 264.677 321.731C264.446 321.952 264.135 322.077 263.81 322.077ZM263.81 319.884C263.608 319.882 263.411 319.939 263.242 320.047C263.073 320.156 262.942 320.31 262.864 320.491C262.785 320.673 262.765 320.872 262.803 321.065C262.842 321.258 262.939 321.435 263.082 321.574C263.225 321.713 263.407 321.808 263.605 321.846C263.803 321.884 264.008 321.863 264.195 321.787C264.381 321.711 264.54 321.583 264.651 321.419C264.762 321.255 264.82 321.062 264.818 320.865C264.818 320.605 264.712 320.356 264.523 320.172C264.334 319.988 264.078 319.884 263.81 319.884Z" fill="white"/>
<path d="M253.404 326.426C253.158 326.428 252.917 326.358 252.711 326.226C252.505 326.094 252.344 325.905 252.249 325.684C252.153 325.463 252.127 325.219 252.174 324.984C252.221 324.748 252.339 324.532 252.512 324.362C252.686 324.191 252.908 324.075 253.149 324.028C253.391 323.98 253.641 324.004 253.869 324.095C254.097 324.186 254.292 324.342 254.429 324.541C254.566 324.74 254.639 324.975 254.639 325.215C254.639 325.534 254.509 325.841 254.278 326.068C254.047 326.295 253.733 326.424 253.404 326.426ZM253.404 324.234C253.202 324.232 253.005 324.289 252.836 324.397C252.667 324.505 252.536 324.659 252.458 324.841C252.379 325.022 252.359 325.222 252.397 325.415C252.436 325.607 252.533 325.785 252.676 325.924C252.819 326.063 253.001 326.157 253.199 326.195C253.397 326.233 253.603 326.213 253.789 326.137C253.975 326.061 254.134 325.932 254.245 325.768C254.356 325.604 254.414 325.411 254.412 325.215C254.41 324.955 254.303 324.707 254.114 324.523C253.926 324.34 253.671 324.236 253.404 324.234Z" fill="white"/>
<path d="M245.995 308.383C245.752 308.382 245.514 308.31 245.312 308.177C245.11 308.043 244.953 307.855 244.861 307.635C244.769 307.415 244.746 307.174 244.794 306.941C244.843 306.709 244.961 306.495 245.134 306.328C245.307 306.161 245.528 306.047 245.767 306.001C246.006 305.956 246.254 305.98 246.479 306.071C246.704 306.163 246.896 306.317 247.032 306.514C247.167 306.712 247.239 306.944 247.239 307.181C247.239 307.34 247.207 307.497 247.144 307.643C247.082 307.79 246.99 307.923 246.874 308.034C246.759 308.146 246.622 308.235 246.471 308.294C246.32 308.354 246.158 308.385 245.995 308.383ZM245.995 306.2C245.796 306.202 245.602 306.261 245.438 306.37C245.273 306.478 245.146 306.632 245.071 306.812C244.996 306.991 244.977 307.188 245.017 307.378C245.057 307.568 245.154 307.742 245.295 307.878C245.436 308.014 245.616 308.107 245.811 308.144C246.006 308.181 246.209 308.161 246.392 308.087C246.576 308.012 246.733 307.887 246.843 307.725C246.953 307.564 247.012 307.375 247.012 307.181C247.012 307.052 246.986 306.923 246.935 306.804C246.883 306.684 246.808 306.575 246.714 306.484C246.619 306.393 246.507 306.321 246.384 306.272C246.26 306.223 246.128 306.199 245.995 306.2Z" fill="white"/>
<path d="M244.878 319.248C244.634 319.248 244.395 319.177 244.192 319.045C243.989 318.913 243.831 318.725 243.738 318.506C243.644 318.286 243.62 318.044 243.667 317.811C243.715 317.578 243.833 317.364 244.005 317.195C244.178 317.027 244.398 316.913 244.638 316.866C244.877 316.82 245.125 316.844 245.351 316.935C245.577 317.026 245.77 317.18 245.905 317.378C246.041 317.575 246.113 317.808 246.113 318.046C246.113 318.364 245.983 318.67 245.752 318.896C245.52 319.121 245.206 319.248 244.878 319.248ZM244.878 317.064C244.679 317.064 244.484 317.122 244.318 317.23C244.153 317.337 244.024 317.491 243.947 317.67C243.871 317.849 243.851 318.047 243.89 318.237C243.929 318.427 244.025 318.602 244.166 318.739C244.307 318.877 244.486 318.97 244.682 319.008C244.877 319.046 245.08 319.026 245.264 318.952C245.448 318.878 245.606 318.752 245.716 318.591C245.827 318.429 245.886 318.24 245.886 318.046C245.886 317.785 245.78 317.536 245.591 317.352C245.402 317.168 245.146 317.064 244.878 317.064Z" fill="white"/>
<path d="M305.342 295.53L304.543 324.295H400.855C400.855 324.295 382.767 249.155 355.682 227.055C340.863 214.98 329.35 220.151 321.523 228.143C319.616 230.158 298.732 262.981 297.824 274.8C297.079 285.231 305.342 295.53 305.342 295.53Z" fill="#EB9481"/>
<path d="M305.342 295.53L304.543 324.295H400.846C400.846 324.295 391.766 286.655 376.884 256.829C374.886 260.506 369.792 268.038 361.584 268.091C350.688 268.17 342.797 250.923 342.797 250.923C342.797 250.923 328.524 259.551 319.489 258.181C310.455 256.811 310.89 244.992 310.89 244.992C304.825 255.547 298.36 268.312 297.87 274.783C297.08 285.231 305.342 295.53 305.342 295.53Z" fill="#F27E0D"/>
<path d="M342.752 254.256C342.363 251.355 342.242 248.426 342.388 245.504C342.494 242.569 342.831 239.646 343.396 236.762C343.919 233.812 344.957 230.972 346.465 228.364C347.26 226.978 348.515 225.896 350.025 225.296C350.798 225.043 351.627 225.003 352.422 225.181C352.794 225.305 353.166 225.429 353.511 225.57L354.483 226.145L353.421 225.818C353.058 225.756 352.703 225.712 352.349 225.668C351.663 225.637 350.98 225.784 350.37 226.092C349.188 226.783 348.255 227.815 347.7 229.044C347.075 230.305 346.57 231.619 346.193 232.969C345.784 234.322 345.448 235.71 345.176 237.106C344.904 238.503 344.64 239.918 344.422 241.341C344.205 242.764 344.005 244.187 343.796 245.619C343.433 248.484 343.06 251.357 342.752 254.256Z" fill="#F27E0D"/>
<path d="M309.782 246.928C310.776 244.225 311.963 241.593 313.332 239.051C314.692 236.49 316.208 234.01 317.872 231.626C318.717 230.441 319.589 229.274 320.524 228.143C321.471 227.017 322.487 225.949 323.566 224.943C324.648 223.904 325.87 223.012 327.198 222.291C327.85 221.897 328.584 221.648 329.347 221.562C330.11 221.477 330.883 221.557 331.611 221.796C330.903 221.738 330.191 221.817 329.514 222.027C328.838 222.238 328.211 222.577 327.67 223.024C326.537 223.866 325.499 224.824 324.574 225.88C322.696 228.013 320.955 230.256 319.362 232.598C317.709 234.923 316.156 237.319 314.576 239.67C312.997 242.022 311.444 244.55 309.782 246.928Z" fill="#F27E0D"/>
<path d="M400.846 324.295H362.156L361.584 268.091C369.756 268.038 374.886 260.506 376.884 256.829C391.784 286.655 400.846 324.295 400.846 324.295Z" fill="#263238"/>
<path d="M343.315 223.396C342.833 225.013 334.235 235.224 326.571 234.472C324.074 234.225 324.855 220.903 324.855 220.903L324.683 219.913L322.276 205.972L339.465 196.451L341.944 195.196C341.944 195.196 342.343 199.059 342.797 203.868C342.797 204.089 342.843 204.31 342.861 204.549C342.879 204.787 342.924 205.079 342.942 205.327C343.024 206.052 343.097 206.785 343.16 207.51C343.206 208.067 343.251 208.606 343.278 209.199C343.306 209.791 343.351 210.357 343.396 210.967C343.662 215.107 343.635 219.259 343.315 223.396Z" fill="#EB9481"/>
<path d="M342.797 203.859C341.154 207.654 338.683 211.055 335.555 213.827C332.427 216.599 328.717 218.676 324.683 219.913L322.276 205.972L339.465 196.451L341.944 195.196C341.944 195.196 342.316 199.05 342.797 203.859Z" fill="#263238"/>
<path d="M303.845 184.535C301.602 209.287 316.557 213.353 322.005 213.822C326.971 214.237 343.951 215.06 348.809 190.696C353.667 166.333 342.562 157.511 331.248 155.955C319.934 154.399 306.087 159.818 303.845 184.535Z" fill="#EB9481"/>
<path d="M308.049 180.009C308.631 179.957 309.21 179.875 309.783 179.761C310.41 179.76 311.019 179.558 311.517 179.187C311.65 179.04 311.729 178.855 311.743 178.66C311.756 178.464 311.702 178.271 311.59 178.108C311.319 177.821 310.974 177.61 310.591 177.496C310.207 177.383 309.8 177.371 309.411 177.463C308.593 177.522 307.828 177.878 307.268 178.462C307.149 178.602 307.074 178.773 307.052 178.954C307.031 179.134 307.063 179.317 307.146 179.481C307.228 179.644 307.357 179.781 307.517 179.874C307.677 179.968 307.862 180.015 308.049 180.009Z" fill="#263238"/>
<path d="M325.609 181.653C325.018 181.547 324.492 181.353 323.92 181.193C323.297 181.113 322.719 180.833 322.276 180.398C322.168 180.236 322.117 180.043 322.131 179.85C322.146 179.656 322.226 179.473 322.358 179.328C322.662 179.075 323.032 178.906 323.427 178.841C323.822 178.776 324.227 178.816 324.601 178.957C325.403 179.12 326.113 179.571 326.589 180.221C326.692 180.375 326.746 180.554 326.745 180.737C326.743 180.92 326.687 181.099 326.583 181.251C326.479 181.404 326.331 181.523 326.158 181.594C325.984 181.666 325.794 181.686 325.609 181.653Z" fill="#263238"/>
<path d="M321.804 187.691C321.804 187.62 321.931 187.779 321.922 187.85C321.713 189.53 321.768 191.483 323.284 192.173C323.284 192.173 323.284 192.279 323.284 192.27C321.368 191.828 321.332 189.247 321.804 187.691Z" fill="#263238"/>
<path d="M323.512 186.064C326.308 186.064 326.027 191.545 323.439 191.51C320.851 191.474 321.16 186.029 323.512 186.064Z" fill="#263238"/>
<path d="M324.592 186.4C325.064 186.736 325.5 187.284 326.099 187.39C326.698 187.496 327.325 186.939 327.797 186.418C327.851 186.356 327.897 186.418 327.888 186.48C327.888 187.523 327.388 188.575 326.226 188.681C325.064 188.787 324.465 187.797 324.256 186.745C324.21 186.524 324.401 186.268 324.592 186.4Z" fill="#263238"/>
<path d="M310.981 186.391C310.981 186.33 310.845 186.471 310.845 186.533C310.845 188.23 310.518 190.157 308.92 190.661C308.874 190.661 308.874 190.758 308.92 190.75C310.854 190.564 311.244 188 310.981 186.391Z" fill="#263238"/>
<path d="M309.51 184.57C306.731 184.243 306.277 189.689 308.856 189.98C311.435 190.272 311.843 184.836 309.51 184.57Z" fill="#263238"/>
<path d="M308.32 184.836C307.848 185.083 307.412 185.578 306.84 185.569C306.268 185.56 305.823 184.933 305.478 184.341C305.478 184.279 305.397 184.341 305.387 184.394C305.269 185.428 305.533 186.542 306.55 186.816C307.567 187.09 308.23 186.241 308.565 185.225C308.629 185.039 308.502 184.756 308.32 184.836Z" fill="#263238"/>
<path d="M320.288 200.588C319.87 200.986 319.452 201.525 318.826 201.579C318.181 201.562 317.547 201.414 316.964 201.145C316.952 201.139 316.938 201.138 316.924 201.14C316.911 201.143 316.899 201.15 316.889 201.16C316.88 201.17 316.874 201.182 316.873 201.196C316.872 201.209 316.875 201.222 316.883 201.234C317.132 201.566 317.468 201.827 317.856 201.99C318.244 202.154 318.67 202.213 319.089 202.162C319.443 202.071 319.761 201.881 320.005 201.615C320.248 201.35 320.407 201.02 320.46 200.668C320.524 200.571 320.351 200.535 320.288 200.588Z" fill="#263238"/>
<path d="M313.432 194.065C313.432 194.065 312.869 196.946 312.797 198.14C312.797 198.246 317.019 198.706 319.352 196.213C319.452 196.107 319.298 195.965 319.18 196.036C317.583 197.015 315.704 197.465 313.823 197.318C313.75 196.982 314.821 192.951 314.631 192.898C313.679 192.921 312.736 193.07 311.825 193.34C312.733 188.106 314.549 183.059 315.357 177.834C315.369 177.793 315.364 177.749 315.343 177.712C315.321 177.675 315.286 177.647 315.244 177.635C315.202 177.624 315.156 177.629 315.118 177.649C315.08 177.67 315.051 177.705 315.039 177.746C312.797 182.9 311.598 188.902 310.499 194.286C310.363 194.975 312.933 194.232 313.432 194.065Z" fill="#263238"/>
<path d="M346.375 192.606C340.191 191.934 339.837 173.246 339.819 170.957C339.746 172.398 339.374 180.053 338.748 180.318C338.085 180.255 337.437 180.085 336.832 179.814C336.904 178.899 336.904 177.98 336.832 177.065C336.832 176.632 336.596 177.949 336.232 179.602L335.107 179.204C335.329 177.26 335.283 175.294 334.97 173.361C334.843 172.628 334.389 175.854 333.463 178.665C329.268 177.224 323.212 175.297 317.446 174.678C315.902 174.51 314.568 174.431 313.387 174.396C313.551 172.141 314.005 169.763 313.796 170.267C313.226 171.596 312.791 172.976 312.497 174.387C311.862 174.387 311.262 174.387 310.727 174.387C310.818 171.187 312.77 166.219 312.18 166.961C310.443 169.245 309.164 171.827 308.411 174.572C306.15 174.82 305.497 175.2 305.479 174.634C305.479 173.609 307.422 164.786 315.067 158.784C323.366 152.251 338.966 151.606 346.847 163.204C346.847 163.204 353.666 168.287 354.229 175.722C354.792 183.156 349.952 192.995 346.375 192.606Z" fill="#263238"/>
<path d="M344.631 192.252C344.631 192.252 350.206 184.517 353.811 186.453C357.416 188.389 353.212 199.607 348.971 201.137C348.444 201.367 347.875 201.492 347.298 201.504C346.72 201.515 346.146 201.414 345.61 201.205C345.074 200.997 344.586 200.685 344.176 200.289C343.766 199.893 343.442 199.42 343.224 198.9L344.631 192.252Z" fill="#EB9481"/>
<path d="M352.522 189.636C352.534 189.64 352.544 189.648 352.551 189.658C352.559 189.669 352.562 189.681 352.562 189.693C352.562 189.706 352.559 189.718 352.551 189.728C352.544 189.738 352.534 189.746 352.522 189.751C349.544 190.917 347.982 193.596 346.875 196.381C347.783 195.311 348.963 194.728 350.434 195.753C350.516 195.806 350.434 195.921 350.352 195.903C349.832 195.738 349.272 195.734 348.75 195.892C348.228 196.05 347.769 196.363 347.438 196.787C346.887 197.498 346.418 198.266 346.039 199.077C345.894 199.333 345.413 199.201 345.522 198.9C345.527 198.877 345.527 198.853 345.522 198.829C345.504 195.161 348.455 190.007 352.522 189.636Z" fill="#263238"/>
<path d="M369.492 238.751C401.145 271.22 427.15 338.731 411.923 345.069C398.003 350.86 353.911 345.511 335.778 341.304C330.448 340.066 341.172 299.888 346.874 301.205C353.756 302.797 371.39 305.263 372.071 305.219C373.587 305.113 356.635 257.907 351.477 240.687C344.286 216.633 357.606 226.552 369.492 238.751Z" fill="#EB9481"/>
<path d="M292.004 291.976C289.543 295.689 292.548 299.208 292.548 299.208C290.503 300.147 288.861 301.755 287.909 303.751C286.401 307.349 291.541 311.221 291.541 311.221C289.63 312.628 288.2 314.562 287.436 316.773C286.347 320.353 290.95 324.985 290.95 324.985C289.935 327.214 289.774 329.723 290.496 332.057C292.712 338.245 302.718 340.446 309.065 341.922C315.412 343.399 334.825 341.781 338.557 341.834L348.599 302.328C348.599 302.328 322.067 287.848 314.359 287.15C307.857 286.522 294.755 287.804 292.004 291.976Z" fill="#EB9481"/>
<path d="M292.993 298.642C300.057 297.652 307.031 298.748 314.059 299.464C314.09 299.464 314.12 299.476 314.142 299.497C314.164 299.519 314.177 299.548 314.177 299.579C314.177 299.609 314.164 299.638 314.142 299.66C314.12 299.682 314.09 299.694 314.059 299.694C307.076 298.907 300.021 299.482 293.02 298.969C292.981 298.964 292.945 298.946 292.918 298.918C292.891 298.89 292.875 298.854 292.872 298.816C292.868 298.778 292.879 298.74 292.901 298.708C292.923 298.676 292.956 298.653 292.993 298.642Z" fill="#263238"/>
<path d="M291.795 310.735C293.422 310.66 295.052 310.794 296.644 311.133C298.342 311.389 300.04 311.681 301.738 312.017C305.133 312.635 308.508 313.34 311.862 314.129C312.007 314.129 311.989 314.395 311.862 314.368C308.475 313.749 305.088 313.184 301.683 312.715C299.976 312.473 298.269 312.246 296.562 312.034C294.938 311.937 293.33 311.665 291.768 311.221C291.701 311.218 291.639 311.189 291.595 311.14C291.551 311.092 291.528 311.029 291.532 310.965C291.535 310.9 291.565 310.84 291.614 310.797C291.664 310.754 291.729 310.731 291.795 310.735Z" fill="#263238"/>
<path d="M291.086 325.011C292.476 324.799 294.074 325.321 295.427 325.595C296.97 325.913 298.505 326.214 300.048 326.479C303.135 327.08 306.223 327.672 309.328 328.167C309.482 328.167 309.455 328.424 309.328 328.397C306.168 327.92 302.972 327.513 299.848 326.965L295.209 326.187C293.777 326.071 292.379 325.709 291.077 325.118C291.065 325.102 291.059 325.082 291.061 325.063C291.063 325.043 291.072 325.025 291.086 325.011Z" fill="#263238"/>
<path d="M300.838 288.043C297.615 288.378 293.92 288.988 291.758 291.579C290.768 292.686 290.259 294.126 290.342 295.592C290.495 296.963 291.176 298.227 292.249 299.128C290.955 299.505 289.797 300.229 288.906 301.217C288.015 302.205 287.427 303.417 287.209 304.715C287.146 305.365 287.22 306.021 287.426 306.643C287.632 307.265 287.966 307.839 288.408 308.33C288.835 308.852 289.316 309.312 289.806 309.789C290.297 310.266 290.814 310.673 291.304 311.088C290.756 311.495 290.237 311.938 289.752 312.414C289.21 312.904 288.717 313.442 288.281 314.023C287.396 315.182 286.881 316.568 286.801 318.01C286.84 319.444 287.321 320.833 288.181 321.997C288.875 323.193 289.864 324.202 291.059 324.932C291.132 324.932 291.205 324.879 291.15 324.826C290.209 323.956 289.418 322.944 288.807 321.829C288.072 320.642 287.685 319.281 287.691 317.895C287.831 316.581 288.315 315.324 289.098 314.244C289.484 313.663 289.902 313.102 290.351 312.565C290.723 312.123 291.695 311.221 291.604 311.159C291.513 311.097 290.578 310.054 290.224 309.586C289.87 309.117 289.507 308.604 289.18 308.092C288.49 307.109 288.202 305.911 288.372 304.732C288.604 303.636 289.138 302.622 289.915 301.798C290.687 300.914 291.659 300.286 292.467 299.464C292.52 299.373 292.536 299.265 292.512 299.163C290.796 296.432 291.077 293.859 293.021 291.941C294.005 290.993 295.151 290.219 296.407 289.651C297.845 289.048 299.33 288.557 300.848 288.184C300.957 288.184 300.938 288.034 300.838 288.043Z" fill="#263238"/>
<path d="M363.055 275.578C362.583 273.766 362.056 271.971 361.511 270.168C360.422 266.553 359.296 262.928 357.879 259.41C357.089 257.421 356.217 255.467 355.373 253.496C355.373 253.496 355.319 253.496 355.328 253.496C356.099 255.989 356.808 258.499 357.579 260.992C356.79 259.542 355.9 258.155 355.146 256.696C355.146 256.616 354.992 256.696 355.028 256.767C355.809 258.278 356.444 259.852 357.18 261.381C357.598 262.265 358.088 263.096 358.533 263.927C358.533 264.033 358.596 264.139 358.633 264.236C359.868 267.817 361.066 271.415 362.319 274.986C363.018 276.993 363.781 278.999 364.353 281.041C364.361 281.056 364.374 281.068 364.39 281.074C364.406 281.081 364.424 281.081 364.441 281.076C364.457 281.071 364.471 281.06 364.48 281.045C364.489 281.031 364.492 281.014 364.489 280.997C363.945 279.229 363.527 277.39 363.055 275.578Z" fill="#263238"/>
<path d="M398.83 316.949C396.831 315.345 394.685 313.922 392.42 312.697C390.228 311.391 387.936 310.25 385.565 309.285C377.99 306.333 370.017 304.463 361.893 303.734C361.874 303.734 361.855 303.741 361.842 303.754C361.828 303.768 361.82 303.786 361.82 303.804C361.82 303.823 361.828 303.841 361.842 303.854C361.855 303.868 361.874 303.875 361.893 303.875C363.273 304.123 378.019 307.561 384.212 309.904C386.572 310.788 388.842 311.911 391.103 313.033C392.399 313.67 393.676 314.333 394.935 315.022C396.197 315.721 397.405 316.499 398.676 317.162C398.705 317.174 398.737 317.176 398.767 317.168C398.798 317.16 398.824 317.142 398.842 317.117C398.861 317.092 398.869 317.062 398.867 317.031C398.865 317.001 398.852 316.972 398.83 316.949Z" fill="#263238"/>
<path d="M92.9518 237.195C99.444 248.563 143.936 292.003 169.16 293.081C198.007 294.328 251.997 277.682 256.383 274.04C268.386 264.051 254.222 234.454 244.942 235.011C233.374 235.701 178.54 253.125 169.769 252.205C156.076 250.764 125.522 230.989 103.648 220.867C90.927 214.971 87.9578 228.443 92.9518 237.195Z" fill="#DD6A57"/>
<path d="M251.662 276.197C254.24 275.092 274.607 268.161 283.296 259.64C287.9 255.131 299.123 241.332 296.653 238.265C294.392 235.462 290.37 238.512 290.37 238.512C290.37 238.512 295.273 232.324 292.095 228.426C288.917 224.527 282.388 230.043 282.388 230.043C282.388 230.043 286.928 223.298 283.496 219.674C280.064 216.05 274.416 222.618 274.416 222.618C274.416 222.618 278.883 216.642 274.743 214.821C269.767 212.629 262.803 224.545 256.883 228.594C255.539 229.478 228.271 245.31 228.271 245.31L251.662 276.197Z" fill="#DD6A57"/>
<path d="M274.143 222.565C269.004 231.325 265.199 234.295 256.201 238.963C256.02 239.051 256.119 239.325 256.31 239.246C265.563 235.462 270.883 232.412 274.588 222.786C274.77 222.317 274.388 222.149 274.143 222.565Z" fill="#263238"/>
<path d="M282.107 229.955C275.96 238.6 271.855 241.854 262.794 247.414C262.667 247.493 262.794 247.714 262.93 247.644C272.282 242.914 277.521 239.75 282.506 230.326C282.733 229.902 282.388 229.557 282.107 229.955Z" fill="#263238"/>
<path d="M289.925 238.768C283.342 246.724 279.029 250.473 269.504 254.769C269.456 254.786 269.417 254.822 269.395 254.867C269.374 254.913 269.372 254.965 269.39 255.012C269.408 255.059 269.445 255.097 269.492 255.118C269.538 255.138 269.592 255.14 269.64 255.122C279.782 251.657 285.221 247.007 290.152 238.989C290.488 238.441 290.333 238.265 289.925 238.768Z" fill="#263238"/>
<path d="M220.036 243.984C220.036 243.984 227.908 233.933 232.367 230.264C236.825 226.596 258.617 218.861 260.606 223.343C263.166 229.177 251.517 236.028 245.315 238.68C245.315 238.68 251.244 252.081 243.962 258.782C236.68 265.483 220.036 243.984 220.036 243.984Z" fill="#DD6A57"/>
<path d="M260.768 225.199C259.188 232.121 250.862 235.073 245.069 238.07C244.981 238.11 244.905 238.17 244.846 238.245C244.788 238.321 244.749 238.408 244.733 238.501C244.717 238.594 244.724 238.69 244.754 238.779C244.784 238.869 244.836 238.95 244.905 239.016C247.003 244.797 248.247 253.54 244.37 258.8C244.343 258.83 244.33 258.87 244.334 258.91C244.337 258.949 244.356 258.986 244.388 259.012C244.419 259.038 244.46 259.05 244.5 259.047C244.541 259.044 244.579 259.025 244.606 258.994C249.545 253.902 249.046 245.213 246.331 239.034C252.315 236.046 260.541 232.722 260.859 225.208L260.768 225.199Z" fill="#263238"/>
<path d="M92.8072 240.448C97.783 247.679 138.062 290.482 164.594 294.036C182.481 296.432 213.408 292.984 225.103 290.456L208.968 241.747C208.968 241.747 181.437 251.622 170.832 250.791C160.226 249.96 117.968 225.305 102.296 219.63C95.6401 217.208 91.6177 218.746 89.7654 222.105C87.2411 226.587 88.6576 234.41 92.8072 240.448Z" fill="#455A64"/>
<path d="M216.104 289.519C213.462 282.314 203.737 252.391 202.076 245.823C201.958 245.363 202.23 245.177 202.412 245.637C210.847 267.039 214.161 282.199 216.386 289.404C216.431 289.581 216.159 289.696 216.104 289.519Z" fill="#263238"/>
<path d="M146.588 277.452C146.548 279.907 147.174 282.328 148.404 284.471C148.437 283.248 148.287 282.028 147.959 280.847C147.669 279.658 147.207 278.515 146.588 277.452Z" fill="#263238"/>
<path d="M174.909 252.205C174.886 253.427 175.035 254.647 175.353 255.83C175.644 257.017 176.109 258.157 176.734 259.215C176.775 256.763 176.148 254.345 174.918 252.205H174.909Z" fill="#263238"/>
<path d="M129.771 237.796C129.743 240.249 130.369 242.668 131.587 244.815C131.616 242.362 130.99 239.943 129.771 237.796Z" fill="#263238"/>
<path d="M206.888 269.54C206.859 271.991 207.485 274.406 208.704 276.551C208.732 274.1 208.107 271.685 206.888 269.54Z" fill="#263238"/>
<path d="M167.753 288.104C170.271 288.139 172.754 287.53 174.953 286.336C173.698 286.302 172.444 286.445 171.231 286.761C170.014 287.052 168.844 287.504 167.753 288.104Z" fill="#263238"/>
<path d="M191.588 261.134C192.843 261.156 194.096 261.01 195.311 260.7C196.53 260.417 197.701 259.965 198.788 259.357C196.27 259.316 193.785 259.926 191.588 261.125V261.134Z" fill="#263238"/>
<path d="M132.159 266.446C134.68 266.485 137.167 265.875 139.369 264.678C138.113 264.647 136.859 264.793 135.646 265.112C134.425 265.394 133.251 265.843 132.159 266.446Z" fill="#263238"/>
<path d="M89.5195 225.977C92.04 226.01 94.5256 225.401 96.7291 224.209C95.4736 224.174 94.2196 224.317 93.0063 224.633C91.7859 224.922 90.6126 225.375 89.5195 225.977Z" fill="#263238"/>
<path d="M110.867 232.89C109.957 233.733 109.175 234.697 108.543 235.754C107.884 236.796 107.383 237.924 107.054 239.104C108.856 237.4 110.171 235.267 110.867 232.916V232.89Z" fill="#263238"/>
<path d="M199.941 284.542C199.036 285.39 198.257 286.357 197.626 287.415C196.967 288.457 196.466 289.585 196.137 290.765C197.937 289.061 199.249 286.927 199.941 284.577V284.542Z" fill="#263238"/>
<path d="M161.724 264.661C159.921 266.365 158.607 268.498 157.91 270.849C158.822 270.008 159.605 269.043 160.235 267.985C160.887 266.949 161.388 265.831 161.724 264.661Z" fill="#263238"/>
<path d="M120.91 259.083C120.044 258.197 119.053 257.435 117.968 256.82C116.898 256.179 115.739 255.69 114.526 255.37C116.277 257.125 118.468 258.404 120.882 259.083H120.91Z" fill="#263238"/>
<path d="M188.546 274.924C187.68 274.041 186.69 273.282 185.604 272.67C184.536 272.027 183.376 271.538 182.163 271.22C183.027 272.106 184.018 272.865 185.105 273.474C186.176 274.114 187.334 274.602 188.546 274.924Z" fill="#263238"/>
<path d="M149.765 254.053C148.899 253.169 147.909 252.41 146.823 251.799C145.755 251.154 144.596 250.665 143.382 250.349C144.245 251.235 145.236 251.994 146.324 252.603C147.395 253.241 148.554 253.729 149.765 254.053Z" fill="#263238"/>
<path d="M136.2 280.75C115.715 266.464 96.2477 245.301 92.8337 240.413C88.6841 234.41 87.2676 226.587 89.7646 222.07C91.5806 218.71 95.6394 217.172 102.295 219.594C103.639 220.081 105.173 220.708 106.835 221.442C113.908 236.143 126.466 261.355 136.2 280.75Z" fill="#263238"/>
<path d="M134.075 324.039L35.4756 324.295C35.4756 324.295 46.6712 253.178 82.8823 219.312C87.3587 215.121 97.8733 215.616 104.847 218.657C107.335 219.736 116.596 231.325 119.565 242.525C122.535 253.726 134.33 323.694 134.075 324.039Z" fill="#455A64"/>
<path d="M100.053 248.996C100.023 251.45 100.648 253.869 101.869 256.015C101.901 254.793 101.751 253.572 101.424 252.391C101.135 251.202 100.673 250.059 100.053 248.996Z" fill="#263238"/>
<path d="M97.3378 290.058C97.3097 292.511 97.9354 294.93 99.1538 297.077C99.182 294.624 98.5563 292.206 97.3378 290.058Z" fill="#263238"/>
<path d="M64.2231 274.181C64.1873 276.633 64.8135 279.05 66.0391 281.192C66.074 279.969 65.9272 278.749 65.6033 277.567C65.3045 276.382 64.8401 275.243 64.2231 274.181Z" fill="#263238"/>
<path d="M124.841 273.2C124.807 275.654 125.433 278.074 126.657 280.219C126.693 278.997 126.546 277.776 126.221 276.595C125.924 275.407 125.46 274.264 124.841 273.2Z" fill="#263238"/>
<path d="M79.5225 262.636C80.7779 262.659 82.0306 262.513 83.2453 262.203C84.4681 261.922 85.6426 261.469 86.732 260.86C84.2108 260.821 81.7238 261.431 79.5225 262.628V262.636Z" fill="#263238"/>
<path d="M62.0527 300.118C64.5725 300.145 67.0565 299.536 69.2623 298.35C68.0064 298.319 66.7525 298.465 65.5395 298.783C64.3183 299.066 63.1444 299.515 62.0527 300.118Z" fill="#263238"/>
<path d="M107.344 315.287C108.599 315.311 109.852 315.165 111.067 314.854C112.289 314.573 113.464 314.12 114.553 313.511C112.032 313.472 109.545 314.082 107.344 315.279V315.287Z" fill="#263238"/>
<path d="M60.8359 321.67C62.0916 321.697 63.3449 321.551 64.5587 321.237C65.8004 320.96 66.9936 320.508 68.0999 319.893C65.5802 319.866 63.0962 320.475 60.8904 321.661L60.8359 321.67Z" fill="#263238"/>
<path d="M89.4199 224.129C90.6754 224.152 91.928 224.006 93.1427 223.696C94.3656 223.415 95.54 222.962 96.6294 222.353C94.1083 222.314 91.6213 222.923 89.4199 224.121V224.129Z" fill="#263238"/>
<path d="M78.088 231.767C76.2843 233.471 74.9696 235.604 74.2744 237.955C76.0738 236.248 77.3878 234.116 78.088 231.767Z" fill="#263238"/>
<path d="M50.6668 280.148C49.7574 280.99 48.9776 281.954 48.3514 283.013C47.6891 284.052 47.1873 285.181 46.8623 286.363C47.7723 285.522 48.5522 284.557 49.1777 283.499C49.8331 282.456 50.3344 281.328 50.6668 280.148Z" fill="#263238"/>
<path d="M109.986 271.308C108.194 273.019 106.884 275.15 106.182 277.496C107.974 275.785 109.284 273.655 109.986 271.308Z" fill="#263238"/>
<path d="M84.6893 306.297C83.7844 307.146 83.0051 308.113 82.3739 309.17C81.7153 310.212 81.2138 311.34 80.8848 312.521C82.6851 310.816 83.9966 308.683 84.6893 306.333V306.297Z" fill="#263238"/>
<path d="M113.018 233.491C111.215 235.193 109.903 237.327 109.214 239.679C110.123 238.838 110.903 237.873 111.529 236.815C112.184 235.781 112.685 234.662 113.018 233.491Z" fill="#263238"/>
<path d="M123.07 259.684C122.203 258.798 121.209 258.038 120.119 257.43C119.051 256.785 117.892 256.296 116.678 255.98C117.543 256.868 118.537 257.628 119.629 258.234C120.699 258.875 121.858 259.363 123.07 259.684Z" fill="#263238"/>
<path d="M49.3044 309.656C48.4355 308.77 47.442 308.008 46.3534 307.393C45.2851 306.751 44.1256 306.266 42.9121 305.952C44.6695 307.697 46.8583 308.973 49.2681 309.656H49.3044Z" fill="#263238"/>
<path d="M127.519 297.28C125.766 295.529 123.576 294.249 121.163 293.568C122.03 294.456 123.024 295.218 124.114 295.831C125.175 296.465 126.321 296.953 127.519 297.28Z" fill="#263238"/>
<path d="M68.4997 256.36C67.6308 255.474 66.6373 254.712 65.5487 254.097C64.4788 253.456 63.3199 252.968 62.1074 252.647C63.8607 254.399 66.0507 255.678 68.4634 256.36H68.4997Z" fill="#263238"/>
<path d="M120.61 247.14C121.518 249.624 122.226 252.214 122.862 254.813V254.512C122.862 253.036 122.789 251.533 122.862 250.092C122.862 250.022 122.989 249.986 123.007 250.092C123.264 251.57 123.368 253.068 123.316 254.565C123.316 255.273 123.316 255.98 123.261 256.687C123.516 257.854 123.752 259.021 123.951 260.223C124.333 262.442 125.45 270.698 125.577 272.343C125.577 272.687 125.204 272.758 125.086 272.405C124.56 270.752 122.98 262.256 122.499 260.073C121.562 255.838 120.865 251.556 120.41 247.246C120.428 247.06 120.583 247.051 120.61 247.14Z" fill="#263238"/>
<path d="M102.922 236.673C96.9384 237.469 87.7494 227.833 84.4806 220.372C84.2536 219.86 85.5248 214.83 86.7688 208.651C87.5133 204.894 88.2397 200.695 88.5848 196.814C88.6574 196.018 91.3088 197.742 91.3088 197.742L96.3391 199.439L113.028 205.088C113.028 205.088 109.759 212.991 109.133 219.754C109.083 220.289 109.083 220.827 109.133 221.362C109.133 221.442 109.133 221.53 109.133 221.636C109.369 224.686 108.715 235.895 102.922 236.673Z" fill="#DD6A57"/>
<path d="M109.151 221.345C109.151 221.424 109.151 221.513 109.151 221.619C108.29 221.644 107.428 221.605 106.572 221.504C89.7834 219.559 89.7471 198.52 89.7471 198.52L96.3664 199.404L113.028 205.088C113.028 205.088 109.759 212.991 109.133 219.754C109.09 220.283 109.096 220.816 109.151 221.345Z" fill="#263238"/>
<path d="M86.7053 166.74C83.4002 175.209 86.3421 200.5 92.2713 206.52C100.87 215.192 115.807 216.96 123.597 206.706C131.152 196.77 126.712 163.885 119.965 158.36C110.132 150.183 91.5994 154.24 86.7053 166.74Z" fill="#DD6A57"/>
<path d="M110.022 184.588C110.022 184.526 109.895 184.685 109.904 184.756C110.149 186.453 110.14 188.442 108.615 189.176C108.57 189.176 108.615 189.291 108.615 189.273C110.549 188.796 110.54 186.162 110.022 184.588Z" fill="#263238"/>
<path d="M108.261 182.988C105.428 183.076 105.818 188.593 108.443 188.513C111.067 188.433 110.64 182.9 108.261 182.988Z" fill="#263238"/>
<path d="M120.764 183.633C120.764 183.571 120.91 183.704 120.91 183.775C120.973 185.49 121.345 187.443 122.98 187.903V188C121.028 187.868 120.565 185.269 120.764 183.633Z" fill="#263238"/>
<path d="M122.226 181.742C125.032 181.344 125.649 186.842 123.043 187.214C120.438 187.585 119.856 182.104 122.226 181.742Z" fill="#263238"/>
<path d="M105.846 180.601C106.577 180.347 107.292 180.051 107.988 179.717C108.79 179.504 109.496 179.038 109.995 178.391C110.111 178.159 110.144 177.896 110.09 177.643C110.036 177.39 109.897 177.162 109.695 176.994C109.247 176.718 108.732 176.564 108.202 176.547C107.672 176.53 107.147 176.651 106.681 176.897C105.658 177.257 104.808 177.971 104.293 178.904C104.192 179.123 104.159 179.366 104.197 179.603C104.235 179.84 104.342 180.062 104.506 180.241C104.67 180.42 104.883 180.55 105.121 180.613C105.359 180.677 105.61 180.673 105.846 180.601Z" fill="#263238"/>
<path d="M124.214 178.816C123.445 178.717 122.681 178.578 121.926 178.4C121.094 178.353 120.3 178.043 119.665 177.516C119.502 177.311 119.413 177.059 119.413 176.8C119.413 176.541 119.502 176.289 119.665 176.084C120.038 175.717 120.505 175.454 121.018 175.323C121.531 175.193 122.07 175.199 122.58 175.341C123.64 175.489 124.608 176.008 125.304 176.8C125.457 176.989 125.551 177.218 125.574 177.458C125.596 177.698 125.547 177.939 125.432 178.152C125.316 178.366 125.14 178.542 124.924 178.659C124.708 178.777 124.461 178.831 124.214 178.816Z" fill="#263238"/>
<path d="M109.623 200.005C110.068 200.376 110.531 200.889 111.167 200.889C111.805 200.827 112.423 200.637 112.983 200.332C113.037 200.332 113.101 200.332 113.064 200.412C112.839 200.766 112.519 201.053 112.138 201.243C111.757 201.434 111.33 201.519 110.903 201.49C110.539 201.424 110.203 201.255 109.938 201.003C109.673 200.751 109.491 200.429 109.414 200.076C109.423 199.996 109.559 199.952 109.623 200.005Z" fill="#263238"/>
<path d="M111.103 194.754C111.595 195.403 112.221 195.945 112.94 196.345C113.659 196.746 114.456 196.996 115.28 197.079C115.999 197.163 116.727 197.145 117.441 197.026C117.577 197.017 117.711 196.993 117.841 196.955L118.222 196.876C118.315 196.852 118.397 196.8 118.456 196.726C118.515 196.653 118.548 196.562 118.549 196.469C118.553 196.413 118.553 196.357 118.549 196.301V196.151C118.494 194.834 118.222 192.845 118.222 192.845C118.73 193.048 121.327 193.985 121.237 193.295C120.483 187.629 119.648 181.317 117.668 175.836C117.655 175.8 117.629 175.769 117.595 175.75C117.561 175.731 117.52 175.724 117.481 175.732C117.442 175.739 117.408 175.76 117.384 175.791C117.359 175.822 117.348 175.86 117.35 175.898C117.85 181.379 119.339 186.727 119.938 192.226C119.015 191.878 118.046 191.661 117.06 191.58C116.869 191.651 117.659 195.426 117.632 196C117.634 196.021 117.634 196.042 117.632 196.062C115.38 196.504 113.618 195.947 111.276 194.613C111.121 194.48 110.985 194.63 111.103 194.754Z" fill="#263238"/>
<path d="M116.587 196.416C115.903 197.411 114.964 198.216 113.863 198.75C113.265 199.027 112.591 199.114 111.939 198.997C110.513 198.732 110.386 197.486 110.567 196.398C110.668 195.818 110.839 195.251 111.076 194.71C112.676 195.842 114.609 196.441 116.587 196.416Z" fill="#263238"/>
<path d="M113.9 198.75C113.301 199.027 112.627 199.114 111.975 198.997C110.549 198.732 110.422 197.486 110.604 196.398C112.12 196.442 113.673 197.335 113.9 198.75Z" fill="#FF99BA"/>
<path d="M86.2604 164.636C90.8004 152.26 111.802 152.26 117.532 156.035C119.144 157.055 120.531 158.377 121.615 159.923C122.698 161.469 123.455 163.209 123.843 165.043C123.843 165.043 122.49 161.86 120.211 161.869C117.931 161.878 118.34 164.106 114.971 165.087C111.92 165.971 107.617 162.957 102.459 163.814C100.229 164.133 98.1637 165.144 96.5705 166.697C94.9773 168.25 93.9409 170.261 93.6152 172.433C92.9342 176.535 93.4608 193.092 89.9832 193.923C86.5056 194.754 82.6284 174.643 86.2604 164.636Z" fill="#263238"/>
<path d="M92.9154 187.885C92.9154 187.885 87.4674 179.532 83.6447 181.37C79.8221 183.209 83.563 195.134 87.9123 196.946C88.4545 197.211 89.0457 197.367 89.651 197.406C90.2562 197.445 90.8633 197.365 91.4363 197.171C92.0094 196.977 92.5367 196.674 92.9872 196.278C93.4378 195.883 93.8024 195.404 94.0595 194.869L92.9154 187.885Z" fill="#DD6A57"/>
<path d="M84.8163 184.756C84.8045 184.761 84.7944 184.769 84.7873 184.779C84.7802 184.789 84.7764 184.801 84.7764 184.813C84.7764 184.826 84.7802 184.838 84.7873 184.848C84.7944 184.858 84.8045 184.866 84.8163 184.871C87.8581 186.232 89.3563 189.114 90.3551 192.067C89.4471 190.909 88.2577 190.237 86.6687 191.236C86.5869 191.289 86.6687 191.413 86.7413 191.404C87.2953 191.258 87.882 191.284 88.4204 191.477C88.9588 191.67 89.4223 192.021 89.7468 192.482C90.282 193.255 90.7296 194.082 91.0815 194.949C91.2177 195.223 91.7262 195.108 91.6354 194.789C91.6314 194.766 91.6314 194.742 91.6354 194.719C91.8533 190.882 89.0385 185.348 84.8163 184.756Z" fill="#263238"/>
<path d="M66.9291 243.1C57.5403 259.622 35.9572 322.978 50.6668 334.956C68.9176 349.843 125.123 348.464 137.462 348.685C142.829 348.782 149.185 312.052 144.981 308.251C140.777 304.45 81.0121 306.483 78.3789 303.221C77.2984 301.868 88.603 255.538 85.0164 235.604C81.3209 215.139 71.1603 235.604 66.9291 243.1Z" fill="#DD6A57"/>
<path d="M86.9863 227.895C94.3684 244.691 78.433 299.977 80.4306 301.497C82.4282 303.018 129.018 303.778 129.018 303.778L123.697 353.786C114.281 353.688 52.1464 348.066 43.7928 332.349C35.4392 316.631 52.8728 261.876 64.141 240.952C72.3948 225.765 81.9106 216.315 86.9863 227.895Z" fill="#455A64"/>
<path d="M69.1082 298.642C72.8492 299.146 76.5266 299.756 80.2312 300.224C80.2129 300.146 80.2129 300.064 80.2312 299.985L80.2857 299.632C78.0501 298.511 75.6928 297.636 73.2578 297.024C73.1034 296.971 73.1216 296.706 73.2578 296.723C75.7325 296.882 78.1628 297.441 80.4491 298.377C83.2337 281.964 86.221 265.577 89.4111 249.217C89.4111 249.164 89.5201 249.173 89.5201 249.217C88.9813 253.596 88.4093 257.969 87.8039 262.336C88.5213 260.152 89.402 257.978 90.0921 255.874C90.1058 255.853 90.1262 255.836 90.1501 255.828C90.1741 255.819 90.2004 255.818 90.225 255.825C90.2497 255.832 90.2713 255.846 90.2866 255.866C90.302 255.886 90.3102 255.911 90.31 255.936C89.6926 259.472 89.0388 263.6 87.2773 266.809C87.2719 266.841 87.2594 266.873 87.2406 266.9C87.2218 266.927 87.1972 266.951 87.1684 266.968C85.6066 277.717 83.8269 288.432 81.7204 299.093C82.3647 299.495 82.9432 299.99 83.4365 300.56C88.948 302.01 128.192 302.549 128.836 303.141C129.481 303.734 129.009 307.252 128.655 310.505C128.655 310.788 128.165 310.982 128.183 310.699C128.328 308.56 128.555 304.511 128.119 304.37C127.511 304.184 87.6314 305.342 68.9357 298.995C68.7087 298.925 68.8994 298.615 69.1082 298.642Z" fill="#263238"/>
<path d="M75.3001 335.717C75.2773 336.939 75.427 338.158 75.745 339.341C76.0341 340.532 76.499 341.675 77.1252 342.736C77.1652 340.281 76.5387 337.86 75.3092 335.717H75.3001Z" fill="#263238"/>
<path d="M122.117 327.805C122.093 329.027 122.243 330.247 122.562 331.429C122.851 332.62 123.315 333.763 123.942 334.824C123.982 332.369 123.355 329.948 122.126 327.805H122.117Z" fill="#263238"/>
<path d="M63.3149 274.181C63.2791 276.633 63.9053 279.05 65.1309 281.192C65.1658 279.969 65.019 278.749 64.6951 277.567C64.3963 276.382 63.9319 275.243 63.3149 274.181Z" fill="#263238"/>
<path d="M78.6143 262.636C79.8697 262.659 81.1224 262.513 82.3371 262.203C83.5599 261.922 84.7344 261.469 85.8238 260.86C83.3026 260.821 80.8156 261.431 78.6143 262.628V262.636Z" fill="#263238"/>
<path d="M61.1445 300.118C63.6643 300.145 66.1483 299.536 68.3541 298.35C67.0982 298.319 65.8443 298.465 64.6313 298.783C63.4101 299.066 62.2362 299.515 61.1445 300.118Z" fill="#263238"/>
<path d="M106.436 315.287C107.691 315.311 108.944 315.165 110.158 314.854C111.381 314.573 112.556 314.12 113.645 313.511C111.124 313.472 108.637 314.082 106.436 315.279V315.287Z" fill="#263238"/>
<path d="M59.9277 321.67C61.1834 321.697 62.4367 321.551 63.6505 321.237C64.8922 320.96 66.0854 320.508 67.1917 319.893C64.672 319.866 62.188 320.475 59.9822 321.661L59.9277 321.67Z" fill="#263238"/>
<path d="M77.1798 231.767C75.3761 233.471 74.0614 235.604 73.3662 237.955C75.1656 236.248 76.4796 234.116 77.1798 231.767Z" fill="#263238"/>
<path d="M49.7586 280.148C48.8492 280.99 48.0694 281.954 47.4432 283.013C46.7809 284.052 46.2791 285.181 45.9541 286.363C46.8641 285.522 47.644 284.557 48.2695 283.499C48.9249 282.456 49.4262 281.328 49.7586 280.148Z" fill="#263238"/>
<path d="M83.7811 306.297C82.8762 307.146 82.0969 308.113 81.4657 309.17C80.8071 310.212 80.3056 311.34 79.9766 312.521C81.7769 310.816 83.0884 308.683 83.7811 306.333V306.297Z" fill="#263238"/>
<path d="M109.623 342.789C108.713 343.633 107.933 344.6 107.307 345.662C106.645 346.701 106.143 347.83 105.818 349.012C106.731 348.17 107.511 347.202 108.134 346.139C108.792 345.097 109.294 343.969 109.623 342.789Z" fill="#263238"/>
<path d="M48.3962 309.656C47.5273 308.77 46.5338 308.008 45.4452 307.393C44.3769 306.751 43.2174 306.266 42.0039 305.952C43.7613 307.697 45.9501 308.973 48.3599 309.656H48.3962Z" fill="#263238"/>
<path d="M67.5915 256.36C66.7226 255.474 65.7291 254.712 64.6405 254.097C63.5706 253.456 62.4117 252.968 61.1992 252.647C62.9525 254.399 65.1424 255.678 67.5552 256.36H67.5915Z" fill="#263238"/>
<path d="M98.5181 328.627C96.7672 326.872 94.5764 325.593 92.1621 324.914C93.0259 325.802 94.0167 326.564 95.104 327.177C96.1662 327.815 97.3156 328.303 98.5181 328.627Z" fill="#263238"/>
<path d="M83.0914 283.419C81.3404 281.665 79.1496 280.385 76.7354 279.706C77.5889 280.602 78.5706 281.373 79.65 281.996C80.7242 282.623 81.8823 283.102 83.0914 283.419Z" fill="#263238"/>
<path d="M132.822 306.439C132.822 306.439 143.8 306.757 146.515 307.004C149.23 307.252 176.479 301.63 185.15 306.845C191.279 310.54 205.126 327.177 203.764 338.369C202.929 345.131 195.22 345.644 195.22 345.644C195.22 345.644 194.103 349.763 190.771 351.045C189.589 351.523 188.317 351.749 187.038 351.706C185.76 351.663 184.506 351.353 183.361 350.798C182.977 352.031 182.262 353.142 181.29 354.017C180.318 354.892 179.125 355.498 177.832 355.775C172.384 356.968 169.959 353.83 169.959 353.83C167.721 356.177 164.686 357.656 161.415 357.993C153.543 358.621 142.883 354.351 141.63 351.266C139.578 346.227 148.585 346.024 154.759 346.555C154.759 346.555 152.526 346.395 152.081 343.372C152.081 343.372 148.567 351.381 129.599 347.925L132.822 306.439Z" fill="#DD6A57"/>
<path d="M160.443 320.282C164.893 324.702 168.062 330.828 170.431 336.53C172.801 342.232 173.936 348.437 170.359 353.821C170.327 353.862 170.281 353.892 170.229 353.904C170.178 353.915 170.123 353.909 170.076 353.886C170.028 353.863 169.99 353.824 169.969 353.777C169.948 353.729 169.944 353.676 169.959 353.627C173.11 347.439 171.094 341.047 168.416 335.063C166.118 329.953 163.767 324.914 160.026 320.636C159.808 320.415 160.207 320.052 160.443 320.282Z" fill="#263238"/>
<path d="M172.456 317.904C179.784 325.666 188.8 339.889 183.534 350.7C183.523 350.73 183.501 350.754 183.472 350.767C183.443 350.78 183.41 350.782 183.38 350.771C183.349 350.761 183.325 350.739 183.311 350.711C183.298 350.683 183.296 350.65 183.307 350.621C186.185 338.713 178.767 327.513 172.129 318.169C171.984 317.975 172.284 317.718 172.456 317.904Z" fill="#263238"/>
<path d="M183.498 314.907C187.784 318.523 191.026 323.703 193.541 328.6C196.265 333.904 197.372 339.783 195.547 345.556C195.536 345.583 195.515 345.606 195.489 345.62C195.462 345.633 195.431 345.637 195.401 345.631C195.372 345.625 195.346 345.608 195.327 345.585C195.309 345.561 195.3 345.532 195.302 345.503C196.474 333.781 190.889 323.853 183.153 315.208C182.981 315.013 183.308 314.748 183.498 314.907Z" fill="#263238"/>
<path d="M141.594 348.977C141.594 349.039 141.594 349.1 141.675 349.047C144.536 346.192 149.412 346.192 154.052 346.855C154.081 346.871 154.114 346.879 154.147 346.879C154.18 346.879 154.213 346.871 154.242 346.855C157.084 347.279 159.817 347.942 161.924 348.349C161.992 348.36 162.063 348.347 162.122 348.313C162.181 348.278 162.226 348.224 162.248 348.16C162.27 348.096 162.268 348.026 162.242 347.963C162.215 347.901 162.167 347.85 162.105 347.819C159.552 346.649 156.825 345.879 154.024 345.538C153.513 344.725 153.165 343.825 152.998 342.886C152.882 341.421 153.234 339.958 154.006 338.696C154.006 338.625 153.943 338.572 153.888 338.625C153.282 339.175 152.807 339.846 152.493 340.592C152.179 341.339 152.036 342.142 152.072 342.948C152.072 343.001 152.072 343.063 152.072 343.125C151.792 343.688 151.417 344.201 150.964 344.645C150.676 344.898 150.373 345.134 150.056 345.352C146.642 345.494 143.383 346.475 141.594 348.977ZM152.744 345.441C152.272 345.441 151.791 345.388 151.309 345.37C151.442 345.223 151.566 345.07 151.682 344.91C151.93 344.563 152.117 344.177 152.236 343.77C152.325 344.344 152.496 344.904 152.744 345.432V345.441Z" fill="#263238"/>
<path d="M109.26 219.144L103.966 233.562L85.1252 216.271L80.2129 222.238C80.2129 222.238 99.0811 250.119 99.1356 248.819L104.665 236.355L113.682 244.55L112.129 223.192L109.26 219.144Z" fill="#455A64"/>
<path d="M113.5 233.951C113.127 230.415 112.846 226.879 112.301 223.343C112.301 223.219 112.083 223.175 112.056 223.343C111.466 226.773 112.964 240.218 113.091 243.454C112.71 243.091 104.747 236.258 104.674 236.382C103.448 238.379 99.3894 247.458 99.117 248.28C96.1387 243.86 83.5266 226.419 80.049 222.255C80.0309 222.227 80.0021 222.207 79.9689 222.2C79.9357 222.192 79.9008 222.198 79.8719 222.215C79.843 222.233 79.8225 222.261 79.8148 222.293C79.8072 222.326 79.813 222.36 79.8311 222.388C82.5006 227.082 98.8083 250.092 99.0262 250.022C101.184 245.732 103.112 241.335 104.801 236.85C106.163 238.353 114.235 246.097 114.244 245.575C114.206 241.69 113.958 237.81 113.5 233.951Z" fill="#263238"/>
<path d="M149.902 372.226H130.589V375.161H149.902V372.226Z" fill="#F27E0D"/>
<path d="M149.902 372.226H130.589V374.162H149.902V372.226Z" fill="#263238"/>
<path d="M107.671 364.332C108.844 366.031 110.497 367.363 112.43 368.167C114.364 368.972 116.495 369.215 118.567 368.867C119.235 368.739 119.892 368.556 120.528 368.319C121.485 367.949 122.398 367.481 123.252 366.922L120.791 363.386C120.337 363.698 119.854 363.967 119.348 364.19C114.753 366.215 111.838 362.688 111.266 361.883C108.615 358.259 107.634 349.984 110.358 346.811C110.54 346.572 111.266 346.201 114.426 346.811C114.998 346.935 115.652 347.076 116.388 347.271C116.958 347.461 117.549 347.586 118.149 347.642L118.231 345.52L118.44 343.399C118.24 343.399 117.931 343.275 117.532 343.16C116.094 342.748 114.624 342.453 113.137 342.276C110.849 342.037 108.452 342.276 106.981 344.044C102.604 349.286 104.357 359.788 107.671 364.332Z" fill="#F27E0D"/>
<path d="M120.764 363.377C120.31 363.689 119.827 363.958 119.32 364.181L120.492 368.319C121.448 367.949 122.361 367.481 123.216 366.922L120.764 363.377Z" fill="#263238"/>
<path d="M113.101 342.302L114.399 346.837C114.971 346.961 115.625 347.103 116.36 347.297C116.93 347.488 117.522 347.612 118.122 347.668L118.204 345.547L118.412 343.425C118.213 343.425 117.904 343.301 117.504 343.186C116.064 342.775 114.591 342.479 113.101 342.302Z" fill="#263238"/>
<path d="M165.928 336.804C165.928 336.804 163.612 355.96 159.572 364.031C155.531 372.102 149.983 372.986 146.515 372.986H133.93C130.461 372.986 124.85 372.102 120.873 364.031C116.896 355.96 114.517 336.804 114.517 336.804H165.928Z" fill="#F27E0D"/>
<path d="M162.151 349.304C161.907 349.304 161.668 349.233 161.465 349.101C161.262 348.969 161.103 348.781 161.01 348.562C160.917 348.342 160.892 348.1 160.94 347.867C160.987 347.634 161.105 347.42 161.278 347.251C161.45 347.083 161.67 346.969 161.91 346.922C162.15 346.876 162.398 346.9 162.623 346.991C162.849 347.082 163.042 347.236 163.178 347.434C163.313 347.631 163.386 347.864 163.386 348.102C163.386 348.42 163.256 348.726 163.024 348.952C162.793 349.177 162.478 349.304 162.151 349.304ZM162.151 347.12C161.952 347.12 161.757 347.178 161.591 347.286C161.425 347.393 161.296 347.547 161.22 347.726C161.143 347.905 161.123 348.103 161.162 348.293C161.201 348.483 161.297 348.658 161.438 348.795C161.579 348.933 161.759 349.026 161.954 349.064C162.15 349.102 162.352 349.082 162.537 349.008C162.721 348.934 162.878 348.808 162.989 348.647C163.1 348.485 163.159 348.296 163.159 348.102C163.159 347.841 163.053 347.592 162.864 347.408C162.675 347.224 162.418 347.12 162.151 347.12Z" fill="white"/>
<path d="M125.549 343.116C125.303 343.118 125.061 343.048 124.855 342.916C124.65 342.784 124.489 342.595 124.393 342.374C124.298 342.153 124.272 341.909 124.319 341.674C124.366 341.438 124.483 341.222 124.657 341.051C124.831 340.881 125.052 340.765 125.294 340.718C125.535 340.67 125.786 340.694 126.014 340.785C126.242 340.876 126.436 341.032 126.574 341.231C126.711 341.43 126.784 341.665 126.784 341.905C126.785 342.063 126.754 342.221 126.692 342.367C126.631 342.514 126.54 342.648 126.425 342.76C126.311 342.873 126.174 342.962 126.024 343.023C125.873 343.084 125.712 343.116 125.549 343.116ZM125.549 340.923C125.347 340.922 125.149 340.978 124.981 341.087C124.812 341.195 124.68 341.349 124.602 341.531C124.524 341.712 124.503 341.912 124.542 342.104C124.581 342.297 124.678 342.475 124.821 342.614C124.964 342.753 125.146 342.847 125.344 342.885C125.542 342.923 125.747 342.903 125.933 342.826C126.119 342.75 126.278 342.622 126.389 342.458C126.5 342.294 126.559 342.101 126.557 341.905C126.557 341.776 126.531 341.648 126.48 341.529C126.429 341.41 126.355 341.302 126.262 341.211C126.168 341.12 126.057 341.047 125.935 340.998C125.812 340.949 125.681 340.923 125.549 340.923Z" fill="white"/>
<path d="M127.374 360.769C127.128 360.771 126.886 360.701 126.681 360.569C126.475 360.437 126.314 360.249 126.218 360.028C126.123 359.807 126.097 359.563 126.144 359.327C126.191 359.092 126.309 358.875 126.482 358.705C126.656 358.535 126.877 358.418 127.119 358.371C127.361 358.324 127.611 358.347 127.839 358.438C128.067 358.53 128.262 358.685 128.399 358.884C128.536 359.084 128.609 359.318 128.609 359.558C128.61 359.717 128.579 359.874 128.518 360.021C128.456 360.168 128.365 360.301 128.251 360.414C128.136 360.527 127.999 360.616 127.849 360.677C127.698 360.738 127.537 360.769 127.374 360.769ZM127.374 358.577C127.172 358.575 126.974 358.632 126.806 358.74C126.637 358.848 126.505 359.003 126.427 359.184C126.349 359.365 126.328 359.565 126.367 359.758C126.406 359.951 126.503 360.128 126.646 360.267C126.789 360.406 126.971 360.501 127.169 360.538C127.367 360.576 127.572 360.556 127.758 360.48C127.945 360.404 128.103 360.276 128.214 360.112C128.325 359.947 128.384 359.755 128.382 359.558C128.382 359.298 128.276 359.048 128.087 358.864C127.898 358.68 127.641 358.577 127.374 358.577Z" fill="white"/>
<path d="M117.287 339.96C117.04 339.96 116.8 339.889 116.595 339.755C116.39 339.622 116.231 339.432 116.137 339.21C116.043 338.988 116.019 338.744 116.068 338.509C116.116 338.274 116.236 338.058 116.411 337.889C116.585 337.72 116.808 337.606 117.05 337.56C117.292 337.514 117.542 337.539 117.769 337.632C117.996 337.725 118.19 337.882 118.326 338.082C118.461 338.283 118.533 338.518 118.531 338.758C118.531 338.916 118.499 339.073 118.436 339.22C118.373 339.366 118.282 339.499 118.166 339.611C118.05 339.723 117.913 339.811 117.762 339.871C117.611 339.931 117.45 339.961 117.287 339.96ZM117.287 337.768C117.086 337.768 116.889 337.826 116.722 337.934C116.555 338.043 116.424 338.198 116.347 338.379C116.27 338.56 116.25 338.759 116.289 338.951C116.329 339.143 116.426 339.319 116.568 339.458C116.71 339.596 116.891 339.69 117.088 339.729C117.286 339.767 117.49 339.747 117.676 339.672C117.862 339.597 118.021 339.471 118.132 339.308C118.244 339.145 118.304 338.953 118.304 338.758C118.304 338.495 118.197 338.243 118.006 338.058C117.815 337.872 117.557 337.768 117.287 337.768Z" fill="white"/>
<path d="M134.52 347.456C134.276 347.456 134.037 347.386 133.834 347.254C133.631 347.121 133.473 346.934 133.379 346.714C133.286 346.494 133.261 346.253 133.309 346.019C133.357 345.786 133.474 345.572 133.647 345.404C133.82 345.236 134.04 345.121 134.279 345.075C134.519 345.028 134.767 345.052 134.993 345.143C135.218 345.234 135.411 345.388 135.547 345.586C135.682 345.784 135.755 346.016 135.755 346.254C135.755 346.412 135.723 346.568 135.661 346.714C135.599 346.86 135.508 346.992 135.393 347.104C135.279 347.216 135.142 347.304 134.993 347.365C134.843 347.425 134.682 347.456 134.52 347.456ZM134.52 345.273C134.321 345.273 134.126 345.33 133.96 345.438C133.794 345.546 133.665 345.699 133.589 345.878C133.513 346.058 133.493 346.255 133.532 346.445C133.57 346.636 133.666 346.811 133.807 346.948C133.948 347.085 134.128 347.179 134.323 347.216C134.519 347.254 134.722 347.235 134.906 347.161C135.09 347.086 135.247 346.96 135.358 346.799C135.469 346.638 135.528 346.448 135.528 346.254C135.526 345.994 135.419 345.746 135.23 345.563C135.042 345.379 134.787 345.275 134.52 345.273Z" fill="white"/>
<path d="M148.004 360.265C147.758 360.265 147.517 360.194 147.313 360.061C147.108 359.928 146.949 359.739 146.854 359.518C146.76 359.296 146.736 359.053 146.784 358.818C146.832 358.583 146.95 358.367 147.124 358.198C147.298 358.029 147.52 357.913 147.761 357.866C148.002 357.82 148.252 357.844 148.48 357.935C148.707 358.027 148.901 358.182 149.038 358.381C149.175 358.581 149.248 358.815 149.248 359.054C149.249 359.214 149.218 359.372 149.155 359.519C149.093 359.667 149.002 359.801 148.886 359.913C148.77 360.026 148.633 360.115 148.481 360.176C148.33 360.236 148.167 360.267 148.004 360.265ZM148.004 358.073C147.802 358.073 147.605 358.131 147.438 358.241C147.27 358.35 147.14 358.505 147.063 358.686C146.987 358.868 146.967 359.067 147.007 359.26C147.047 359.452 147.145 359.628 147.288 359.766C147.431 359.904 147.613 359.998 147.811 360.035C148.009 360.072 148.214 360.052 148.399 359.975C148.585 359.899 148.743 359.771 148.854 359.607C148.964 359.443 149.022 359.25 149.021 359.054C149.021 358.925 148.994 358.796 148.943 358.677C148.892 358.557 148.817 358.449 148.722 358.357C148.628 358.266 148.516 358.194 148.392 358.145C148.269 358.096 148.137 358.072 148.004 358.073Z" fill="white"/>
<path d="M139.741 339.96C139.494 339.962 139.253 339.892 139.047 339.759C138.841 339.627 138.68 339.438 138.585 339.216C138.489 338.995 138.464 338.75 138.512 338.515C138.559 338.279 138.678 338.062 138.853 337.892C139.027 337.723 139.25 337.607 139.492 337.561C139.734 337.514 139.985 337.539 140.212 337.632C140.44 337.724 140.634 337.881 140.77 338.081C140.906 338.282 140.978 338.517 140.976 338.758C140.976 339.076 140.846 339.382 140.614 339.608C140.383 339.833 140.069 339.96 139.741 339.96ZM139.741 337.768C139.54 337.766 139.342 337.822 139.174 337.93C139.005 338.038 138.874 338.192 138.795 338.373C138.717 338.553 138.695 338.753 138.734 338.945C138.772 339.138 138.868 339.315 139.01 339.455C139.152 339.594 139.333 339.689 139.53 339.728C139.728 339.767 139.933 339.748 140.119 339.673C140.306 339.598 140.465 339.472 140.577 339.309C140.689 339.146 140.749 338.954 140.749 338.758C140.749 338.497 140.643 338.246 140.455 338.061C140.266 337.875 140.009 337.77 139.741 337.768Z" fill="white"/>
<path d="M138.207 355.439C137.963 355.437 137.726 355.365 137.524 355.232C137.322 355.099 137.165 354.91 137.073 354.69C136.981 354.471 136.958 354.229 137.006 353.997C137.055 353.764 137.173 353.551 137.346 353.383C137.519 353.216 137.739 353.102 137.979 353.057C138.218 353.011 138.466 353.035 138.691 353.127C138.916 353.218 139.108 353.372 139.244 353.569C139.379 353.767 139.451 353.999 139.451 354.236C139.451 354.395 139.419 354.552 139.356 354.699C139.294 354.845 139.202 354.978 139.086 355.09C138.971 355.201 138.833 355.29 138.683 355.35C138.532 355.41 138.37 355.44 138.207 355.439ZM138.207 353.255C138.008 353.257 137.814 353.316 137.65 353.425C137.485 353.534 137.357 353.688 137.283 353.867C137.208 354.046 137.189 354.244 137.229 354.433C137.269 354.623 137.366 354.797 137.507 354.933C137.648 355.07 137.828 355.162 138.023 355.199C138.218 355.237 138.42 355.217 138.604 355.142C138.788 355.068 138.945 354.942 139.055 354.781C139.165 354.62 139.224 354.43 139.224 354.236C139.224 354.107 139.198 353.979 139.147 353.859C139.095 353.739 139.02 353.631 138.926 353.539C138.831 353.448 138.719 353.376 138.596 353.327C138.472 353.279 138.34 353.254 138.207 353.255Z" fill="white"/>
<path d="M125.948 369.848C125.702 369.85 125.461 369.78 125.255 369.648C125.049 369.516 124.888 369.328 124.793 369.106C124.697 368.885 124.671 368.642 124.718 368.406C124.765 368.171 124.883 367.954 125.056 367.784C125.23 367.613 125.452 367.497 125.693 367.45C125.935 367.402 126.185 367.426 126.413 367.517C126.641 367.609 126.836 367.764 126.973 367.963C127.11 368.162 127.183 368.397 127.183 368.637C127.184 368.795 127.153 368.953 127.092 369.1C127.03 369.247 126.94 369.38 126.825 369.493C126.71 369.605 126.573 369.695 126.423 369.756C126.273 369.817 126.111 369.848 125.948 369.848ZM125.948 367.656C125.746 367.654 125.549 367.711 125.38 367.819C125.211 367.927 125.08 368.081 125.002 368.263C124.923 368.444 124.903 368.644 124.941 368.837C124.98 369.03 125.077 369.207 125.22 369.346C125.363 369.485 125.545 369.579 125.743 369.617C125.941 369.655 126.146 369.635 126.333 369.559C126.519 369.483 126.678 369.354 126.789 369.19C126.9 369.026 126.958 368.833 126.956 368.637C126.956 368.508 126.93 368.38 126.88 368.261C126.829 368.142 126.755 368.034 126.661 367.943C126.567 367.852 126.456 367.78 126.334 367.73C126.212 367.681 126.081 367.656 125.948 367.656Z" fill="white"/>
<path d="M156.022 341.763C155.778 341.763 155.539 341.693 155.336 341.561C155.133 341.429 154.975 341.241 154.881 341.021C154.788 340.801 154.763 340.56 154.811 340.326C154.858 340.093 154.976 339.879 155.149 339.711C155.321 339.543 155.542 339.428 155.781 339.382C156.021 339.335 156.269 339.359 156.495 339.45C156.72 339.541 156.913 339.695 157.049 339.893C157.184 340.091 157.257 340.323 157.257 340.561C157.254 340.879 157.124 341.184 156.893 341.409C156.661 341.634 156.349 341.761 156.022 341.763ZM156.022 339.58C155.823 339.58 155.628 339.637 155.462 339.745C155.296 339.853 155.167 340.006 155.091 340.186C155.015 340.365 154.995 340.562 155.033 340.752C155.072 340.943 155.168 341.118 155.309 341.255C155.45 341.392 155.63 341.486 155.825 341.523C156.021 341.561 156.224 341.542 156.408 341.468C156.592 341.393 156.749 341.268 156.86 341.106C156.971 340.945 157.03 340.755 157.03 340.561C157.03 340.301 156.924 340.051 156.735 339.867C156.546 339.683 156.289 339.58 156.022 339.58Z" fill="white"/>
<path d="M121.518 352.159C121.271 352.161 121.03 352.091 120.824 351.959C120.618 351.827 120.458 351.639 120.362 351.418C120.266 351.196 120.24 350.953 120.287 350.717C120.334 350.482 120.452 350.265 120.626 350.095C120.799 349.925 121.021 349.808 121.263 349.761C121.504 349.713 121.755 349.737 121.983 349.828C122.21 349.92 122.405 350.075 122.542 350.274C122.679 350.474 122.753 350.708 122.753 350.948C122.753 351.268 122.623 351.574 122.391 351.801C122.16 352.028 121.846 352.157 121.518 352.159ZM121.518 349.967C121.316 349.965 121.118 350.022 120.949 350.13C120.781 350.238 120.649 350.393 120.571 350.574C120.493 350.755 120.472 350.955 120.511 351.148C120.55 351.341 120.647 351.518 120.79 351.657C120.932 351.796 121.114 351.89 121.312 351.928C121.511 351.966 121.716 351.946 121.902 351.87C122.088 351.794 122.247 351.666 122.358 351.501C122.469 351.337 122.527 351.145 122.526 350.948C122.523 350.688 122.416 350.44 122.228 350.257C122.039 350.073 121.784 349.969 121.518 349.967Z" fill="white"/>
<path d="M146.842 348.552C146.595 348.554 146.353 348.484 146.147 348.352C145.941 348.22 145.781 348.03 145.685 347.809C145.59 347.587 145.565 347.343 145.612 347.107C145.66 346.871 145.779 346.655 145.953 346.485C146.128 346.315 146.35 346.2 146.592 346.153C146.835 346.107 147.085 346.131 147.313 346.224C147.541 346.317 147.735 346.473 147.871 346.674C148.007 346.874 148.079 347.11 148.077 347.35C148.077 347.669 147.947 347.975 147.715 348.2C147.483 348.426 147.169 348.552 146.842 348.552ZM146.842 346.36C146.64 346.358 146.443 346.415 146.274 346.523C146.106 346.63 145.974 346.784 145.896 346.965C145.818 347.146 145.796 347.345 145.834 347.538C145.872 347.73 145.969 347.908 146.11 348.047C146.252 348.186 146.434 348.282 146.631 348.32C146.829 348.359 147.033 348.34 147.22 348.266C147.406 348.191 147.566 348.064 147.678 347.901C147.79 347.738 147.85 347.546 147.85 347.35C147.85 347.089 147.744 346.839 147.555 346.653C147.366 346.468 147.11 346.362 146.842 346.36Z" fill="white"/>
<path d="M138.207 368.036C137.961 368.036 137.72 367.965 137.516 367.832C137.311 367.699 137.152 367.509 137.058 367.288C136.963 367.067 136.939 366.823 136.987 366.588C137.035 366.353 137.153 366.138 137.327 365.968C137.501 365.799 137.723 365.684 137.964 365.637C138.205 365.59 138.456 365.614 138.683 365.706C138.91 365.797 139.104 365.953 139.241 366.152C139.378 366.351 139.451 366.585 139.451 366.825C139.451 367.146 139.32 367.454 139.086 367.681C138.853 367.908 138.537 368.036 138.207 368.036ZM138.207 365.843C138.005 365.843 137.808 365.902 137.641 366.011C137.473 366.12 137.343 366.275 137.266 366.457C137.19 366.638 137.17 366.838 137.21 367.03C137.25 367.222 137.348 367.399 137.491 367.537C137.634 367.675 137.816 367.768 138.014 367.806C138.212 367.843 138.417 367.822 138.602 367.746C138.788 367.669 138.946 367.541 139.057 367.377C139.168 367.213 139.226 367.021 139.224 366.825C139.224 366.695 139.197 366.567 139.146 366.447C139.095 366.327 139.02 366.219 138.925 366.128C138.831 366.036 138.719 365.964 138.595 365.916C138.472 365.867 138.34 365.842 138.207 365.843Z" fill="white"/>
<path d="M148.612 372.385C148.366 372.385 148.126 372.314 147.921 372.181C147.716 372.048 147.557 371.859 147.463 371.637C147.369 371.416 147.344 371.173 147.392 370.938C147.44 370.703 147.559 370.487 147.733 370.318C147.906 370.148 148.128 370.033 148.369 369.986C148.611 369.939 148.861 369.963 149.088 370.055C149.315 370.147 149.51 370.302 149.646 370.501C149.783 370.7 149.856 370.934 149.856 371.174C149.856 371.495 149.725 371.803 149.492 372.03C149.258 372.257 148.942 372.385 148.612 372.385ZM148.612 370.193C148.411 370.193 148.214 370.251 148.046 370.36C147.879 370.469 147.748 370.625 147.672 370.806C147.595 370.987 147.575 371.187 147.615 371.379C147.655 371.571 147.753 371.748 147.896 371.886C148.039 372.024 148.221 372.118 148.419 372.155C148.617 372.192 148.822 372.171 149.008 372.095C149.193 372.019 149.351 371.89 149.462 371.726C149.573 371.562 149.631 371.37 149.629 371.174C149.629 371.044 149.603 370.916 149.552 370.796C149.5 370.677 149.425 370.568 149.331 370.477C149.236 370.386 149.124 370.314 149.001 370.265C148.877 370.216 148.745 370.191 148.612 370.193Z" fill="white"/>
<path d="M156.022 354.343C155.778 354.343 155.539 354.272 155.336 354.14C155.133 354.008 154.975 353.82 154.881 353.6C154.788 353.381 154.763 353.139 154.811 352.906C154.858 352.673 154.976 352.458 155.149 352.29C155.321 352.122 155.542 352.008 155.781 351.961C156.021 351.915 156.269 351.939 156.495 352.03C156.72 352.121 156.913 352.275 157.049 352.472C157.184 352.67 157.257 352.903 157.257 353.14C157.254 353.458 157.124 353.763 156.893 353.988C156.661 354.213 156.349 354.34 156.022 354.343ZM156.022 352.159C155.823 352.159 155.628 352.217 155.462 352.324C155.296 352.432 155.167 352.586 155.091 352.765C155.015 352.944 154.995 353.141 155.033 353.332C155.072 353.522 155.168 353.697 155.309 353.834C155.45 353.971 155.63 354.065 155.825 354.103C156.021 354.141 156.224 354.121 156.408 354.047C156.592 353.973 156.749 353.847 156.86 353.685C156.971 353.524 157.03 353.334 157.03 353.14C157.027 352.881 156.921 352.633 156.732 352.449C156.544 352.266 156.289 352.161 156.022 352.159Z" fill="white"/>
<path d="M157.138 365.207C156.892 365.207 156.651 365.136 156.446 365.002C156.242 364.869 156.082 364.679 155.988 364.457C155.894 364.235 155.87 363.991 155.919 363.756C155.968 363.521 156.087 363.305 156.262 363.136C156.437 362.967 156.659 362.853 156.901 362.807C157.143 362.761 157.394 362.786 157.621 362.88C157.848 362.973 158.042 363.129 158.177 363.329C158.313 363.53 158.384 363.765 158.382 364.005C158.382 364.163 158.35 364.32 158.288 364.467C158.225 364.613 158.133 364.746 158.018 364.858C157.902 364.97 157.765 365.058 157.614 365.118C157.463 365.178 157.301 365.208 157.138 365.207ZM157.138 363.015C156.937 363.015 156.741 363.073 156.573 363.181C156.406 363.29 156.276 363.445 156.199 363.626C156.122 363.807 156.102 364.006 156.141 364.198C156.18 364.39 156.277 364.566 156.419 364.705C156.562 364.843 156.743 364.938 156.94 364.976C157.137 365.014 157.342 364.994 157.528 364.919C157.713 364.844 157.872 364.718 157.984 364.555C158.096 364.392 158.155 364.2 158.155 364.005C158.155 363.742 158.048 363.49 157.858 363.305C157.667 363.119 157.408 363.015 157.138 363.015Z" fill="white"/>
<path d="M146.106 180.557C143.878 177.34 142.674 173.555 142.647 169.675C142.647 155.902 158.191 144.728 177.35 144.728C196.509 144.728 212.036 155.902 212.036 169.675C212.036 183.448 196.509 194.63 177.35 194.63C168.052 194.63 159.635 191.978 153.415 187.726L141.457 190.679L146.106 180.557Z" fill="#F27E0D"/>
<path d="M189.826 169.675C189.826 170.374 190.039 171.058 190.438 171.639C190.837 172.221 191.405 172.674 192.068 172.942C192.732 173.209 193.462 173.279 194.167 173.143C194.871 173.007 195.518 172.67 196.026 172.175C196.534 171.681 196.88 171.051 197.02 170.365C197.161 169.679 197.089 168.968 196.814 168.322C196.539 167.676 196.073 167.123 195.476 166.735C194.879 166.346 194.177 166.139 193.458 166.139C192.495 166.139 191.571 166.512 190.89 167.175C190.209 167.838 189.826 168.737 189.826 169.675Z" fill="#263238"/>
<path d="M173.745 169.675C173.745 170.374 173.958 171.058 174.357 171.639C174.756 172.221 175.324 172.674 175.987 172.942C176.651 173.209 177.381 173.279 178.086 173.143C178.79 173.007 179.437 172.67 179.945 172.175C180.453 171.681 180.799 171.051 180.939 170.365C181.079 169.679 181.008 168.968 180.733 168.322C180.458 167.676 179.992 167.123 179.395 166.735C178.798 166.346 178.095 166.139 177.377 166.139C176.414 166.139 175.49 166.512 174.809 167.175C174.128 167.838 173.745 168.737 173.745 169.675Z" fill="#263238"/>
<path d="M157.665 169.675C157.665 170.374 157.878 171.058 158.277 171.639C158.676 172.221 159.243 172.674 159.907 172.942C160.571 173.209 161.301 173.279 162.006 173.143C162.71 173.007 163.357 172.67 163.865 172.175C164.373 171.681 164.719 171.051 164.859 170.365C164.999 169.679 164.927 168.968 164.653 168.322C164.378 167.676 163.912 167.123 163.315 166.735C162.718 166.346 162.015 166.139 161.297 166.139C160.334 166.139 159.41 166.512 158.729 167.175C158.048 167.838 157.665 168.737 157.665 169.675Z" fill="#263238"/>
<path d="M296.915 141.935C299.144 138.718 300.347 134.933 300.375 131.053C300.375 117.28 284.83 106.107 265.671 106.107C246.512 106.107 230.985 117.28 230.985 131.053C230.985 144.826 246.512 156.008 265.671 156.008C274.96 156.008 283.386 153.356 289.606 149.104L301.555 152.048L296.915 141.935Z" fill="#F27E0D"/>
<path d="M253.187 131.053C253.187 131.752 252.974 132.436 252.575 133.017C252.176 133.599 251.608 134.052 250.945 134.32C250.281 134.587 249.551 134.657 248.846 134.521C248.142 134.385 247.495 134.048 246.987 133.553C246.479 133.059 246.133 132.429 245.993 131.743C245.853 131.057 245.924 130.346 246.199 129.7C246.474 129.054 246.94 128.501 247.537 128.113C248.134 127.724 248.837 127.517 249.555 127.517C250.518 127.517 251.442 127.89 252.123 128.553C252.804 129.216 253.187 130.115 253.187 131.053Z" fill="#263238"/>
<path d="M269.267 131.053C269.267 131.752 269.054 132.436 268.655 133.017C268.256 133.599 267.688 134.052 267.025 134.32C266.361 134.587 265.631 134.657 264.926 134.521C264.222 134.385 263.575 134.048 263.067 133.553C262.559 133.059 262.213 132.429 262.073 131.743C261.933 131.057 262.005 130.346 262.279 129.7C262.554 129.054 263.02 128.501 263.617 128.113C264.214 127.724 264.917 127.517 265.635 127.517C266.598 127.517 267.522 127.89 268.203 128.553C268.884 129.216 269.267 130.115 269.267 131.053Z" fill="#263238"/>
<path d="M285.348 131.053C285.348 131.752 285.135 132.436 284.736 133.017C284.337 133.599 283.77 134.052 283.106 134.32C282.442 134.587 281.712 134.657 281.007 134.521C280.303 134.385 279.656 134.048 279.148 133.553C278.64 133.059 278.294 132.429 278.154 131.743C278.014 131.057 278.086 130.346 278.36 129.7C278.635 129.054 279.101 128.501 279.698 128.113C280.295 127.724 280.998 127.517 281.716 127.517C282.679 127.517 283.603 127.89 284.284 128.553C284.965 129.216 285.348 130.115 285.348 131.053Z" fill="#263238"/>
</svg>
