<svg width="40" height="40" viewBox="0 0 40 40" fill="none" xmlns="http://www.w3.org/2000/svg">
<g clip-path="url(#clip0_180_9)">
<path d="M29.6667 21.3333H21.3333V29.6667C21.3333 30.1087 21.1577 30.5326 20.8452 30.8452C20.5326 31.1577 20.1087 31.3333 19.6667 31.3333C19.2246 31.3333 18.8007 31.1577 18.4882 30.8452C18.1756 30.5326 18 30.1087 18 29.6667V21.3333H9.66667C9.22464 21.3333 8.80072 21.1577 8.48816 20.8452C8.1756 20.5326 8 20.1087 8 19.6667C8 19.2246 8.1756 18.8007 8.48816 18.4882C8.80072 18.1756 9.22464 18 9.66667 18H18V9.66667C18 9.22464 18.1756 8.80072 18.4882 8.48815C18.8007 8.17559 19.2246 8 19.6667 8C20.1087 8 20.5326 8.17559 20.8452 8.48815C21.1577 8.80072 21.3333 9.22464 21.3333 9.66667V18H29.6667C30.1087 18 30.5326 18.1756 30.8452 18.4882C31.1577 18.8007 31.3333 19.2246 31.3333 19.6667C31.3333 20.1087 31.1577 20.5326 30.8452 20.8452C30.5326 21.1577 30.1087 21.3333 29.6667 21.3333Z" fill="#F9EEEE"/>
<circle cx="20" cy="20" r="18.5" stroke="#F5E7E7" stroke-width="3"/>
</g>
<defs>
<clipPath id="clip0_180_9">
<rect width="40" height="40" fill="white"/>
</clipPath>
</defs>
</svg>
