<svg width="30" height="30" viewBox="0 0 30 30" fill="none" xmlns="http://www.w3.org/2000/svg">
<path d="M25.3125 5.625H20.625V4.6875C20.625 3.94158 20.3287 3.22621 19.8012 2.69876C19.2738 2.17132 18.5584 1.875 17.8125 1.875H12.1875C11.4416 1.875 10.7262 2.17132 10.1988 2.69876C9.67132 3.22621 9.375 3.94158 9.375 4.6875V5.625H4.6875C4.43886 5.625 4.2004 5.72377 4.02459 5.89959C3.84877 6.0754 3.75 6.31386 3.75 6.5625C3.75 6.81114 3.84877 7.0496 4.02459 7.22541C4.2004 7.40123 4.43886 7.5 4.6875 7.5H5.625V24.375C5.625 24.8723 5.82254 25.3492 6.17417 25.7008C6.52581 26.0525 7.00272 26.25 7.5 26.25H22.5C22.9973 26.25 23.4742 26.0525 23.8258 25.7008C24.1775 25.3492 24.375 24.8723 24.375 24.375V7.5H25.3125C25.5611 7.5 25.7996 7.40123 25.9754 7.22541C26.1512 7.0496 26.25 6.81114 26.25 6.5625C26.25 6.31386 26.1512 6.0754 25.9754 5.89959C25.7996 5.72377 25.5611 5.625 25.3125 5.625ZM13.125 19.6875C13.125 19.9361 13.0262 20.1746 12.8504 20.3504C12.6746 20.5262 12.4361 20.625 12.1875 20.625C11.9389 20.625 11.7004 20.5262 11.5246 20.3504C11.3488 20.1746 11.25 19.9361 11.25 19.6875V12.1875C11.25 11.9389 11.3488 11.7004 11.5246 11.5246C11.7004 11.3488 11.9389 11.25 12.1875 11.25C12.4361 11.25 12.6746 11.3488 12.8504 11.5246C13.0262 11.7004 13.125 11.9389 13.125 12.1875V19.6875ZM18.75 19.6875C18.75 19.9361 18.6512 20.1746 18.4754 20.3504C18.2996 20.5262 18.0611 20.625 17.8125 20.625C17.5639 20.625 17.3254 20.5262 17.1496 20.3504C16.9738 20.1746 16.875 19.9361 16.875 19.6875V12.1875C16.875 11.9389 16.9738 11.7004 17.1496 11.5246C17.3254 11.3488 17.5639 11.25 17.8125 11.25C18.0611 11.25 18.2996 11.3488 18.4754 11.5246C18.6512 11.7004 18.75 11.9389 18.75 12.1875V19.6875ZM18.75 5.625H11.25V4.6875C11.25 4.43886 11.3488 4.2004 11.5246 4.02459C11.7004 3.84877 11.9389 3.75 12.1875 3.75H17.8125C18.0611 3.75 18.2996 3.84877 18.4754 4.02459C18.6512 4.2004 18.75 4.43886 18.75 4.6875V5.625Z" fill="#F4EDED"/>
</svg>
